<?xml version="1.0" encoding="iso-8859-1"?>
<!-- Generator: Adobe Illustrator 19.0.0, SVG Export Plug-In . SVG Version: 6.00 Build 0)  -->
<svg version="1.1" id="Layer_1" xmlns="http://www.w3.org/2000/svg" xmlns:xlink="http://www.w3.org/1999/xlink" x="0px" y="0px"
	 viewBox="0 0 512 512" style="enable-background:new 0 0 512 512;" xml:space="preserve">
<g id="XMLID_1629_">
	<g id="XMLID_1630_">
		<g id="XMLID_1631_">
			<g id="XMLID_1632_">
				<path id="XMLID_2760_" style="fill:#BDDFF4;" d="M293.408,396.411h-74.811c0,0-0.603,52.063-26.262,84.448
					c-5.435,6.86-0.39,16.98,8.361,16.98h110.612c8.752,0,13.796-10.12,8.361-16.98
					C294.011,448.473,293.408,396.411,293.408,396.411z"/>
				<path id="XMLID_2757_" style="fill:#ADC9E2;" d="M311.312,497.838h-26.966c8.761,0,13.799-10.119,8.367-16.982
					c-25.66-32.378-26.261-84.445-26.261-84.445h26.956c0,0,0.601,52.067,26.261,84.445
					C325.101,487.719,320.062,497.838,311.312,497.838z"/>
				<path id="XMLID_2756_" style="fill:#32DFB7;" d="M512,73.632V405.42c0,5.816-4.707,10.513-10.513,10.513H10.513
					C4.707,415.933,0,411.236,0,405.42V73.632c0-8.698,7.071-15.759,15.769-15.759h480.461C504.94,57.873,512,64.933,512,73.632z"/>
				<rect id="XMLID_2755_" x="44.332" y="57.873" style="fill:#21C69C;" width="423.335" height="307.725"/>
				<path id="XMLID_2754_" style="fill:#21C69C;" d="M512,73.632V405.42c0,5.816-4.707,10.513-10.513,10.513H468.31
					c5.806,0,10.513-4.697,10.513-10.513V73.632c0-8.698-7.06-15.759-15.769-15.759h33.177C504.94,57.873,512,64.933,512,73.632z"/>
				<path id="XMLID_2751_" style="fill:#4E7693;" d="M512,353.156v52.264c0,5.816-4.707,10.513-10.513,10.513H10.513
					C4.707,415.933,0,411.236,0,405.42v-52.264H512z"/>
				<path id="XMLID_2747_" style="fill:#38627C;" d="M512,353.156v52.264c0,5.816-4.707,10.513-10.513,10.513H468.31
					c5.806,0,10.513-4.697,10.513-10.513v-52.264H512z"/>
			</g>
			<g id="XMLID_1633_">
				<g id="XMLID_1638_">
					<path id="XMLID_2743_" style="fill:#E3F4FF;" d="M56.769,24.529v328.627h398.462V24.529c0-5.726-4.642-10.368-10.368-10.368
						H67.137C61.411,14.161,56.769,18.803,56.769,24.529z"/>
					<path id="XMLID_2740_" style="fill:#BDDFF4;" d="M431.445,14.161v338.995h23.788V24.529c0-5.726-4.642-10.368-10.368-10.368
						H431.445z"/>
					<rect id="XMLID_2739_" x="56.763" y="132.624" style="fill:#27E6FC;" width="398.463" height="129.617"/>
					<path id="XMLID_2738_" style="fill:#FDB659;" d="M329.611,242.864c0,6.874-1.379,13.416-3.888,19.377h-92.449
						c-2.509-5.961-3.888-12.503-3.888-19.377c0-27.671,22.436-50.107,50.117-50.107
						C307.175,192.757,329.611,215.193,329.611,242.864z"/>
					<path id="XMLID_2737_" style="fill:#FEDE93;" d="M329.606,242.865c0,6.871-1.37,13.413-3.884,19.378h-23.498
						c2.503-5.965,3.884-12.506,3.884-19.378c0-23.622-16.359-43.432-38.364-48.717c3.771-0.907,7.706-1.391,11.754-1.391
						C307.179,192.757,329.606,215.195,329.606,242.865z"/>
					<path id="XMLID_2736_" style="fill:#12967E;" d="M280.903,262.241H56.763v-44.167l41.801-41.802
						c4.049-4.049,10.613-4.049,14.662,0l49.733,49.733l33.528-33.52c4.049-4.048,10.613-4.048,14.661,0.001L280.903,262.241z"/>
					<path id="XMLID_2735_" style="fill:#21C69C;" d="M280.899,262.243h-28.67l-62.748-62.748l7.005-7.005
						c4.049-4.049,10.611-4.049,14.659,0L280.899,262.243z"/>
					<g id="XMLID_1639_">
						<path id="XMLID_2734_" style="fill:#0B7F69;" d="M127.21,236.959c-1.977,0-3.955-0.755-5.464-2.263l-15.47-15.47
							c-3.017-3.017-3.017-7.909,0-10.927c3.018-3.017,7.909-3.017,10.928,0l15.47,15.47c3.017,3.017,3.017,7.909,0,10.927
							C131.165,236.204,129.187,236.959,127.21,236.959z"/>
					</g>
					<rect id="XMLID_2732_" x="431.445" y="132.624" style="fill:#06C7F4;" width="23.786" height="129.617"/>
					<path id="XMLID_2729_" style="fill:#618BAA;" d="M56.767,24.529v41.395h398.466V24.529c0-5.726-4.642-10.368-10.368-10.368
						H67.135C61.409,14.161,56.767,18.803,56.767,24.529z"/>
					<path id="XMLID_2728_" style="fill:#32DFB7;" d="M56.767,24.529v41.395h116.966V14.161H67.135
						C61.409,14.161,56.767,18.803,56.767,24.529z"/>
					<path id="XMLID_2725_" style="fill:#4E7693;" d="M431.445,14.161v51.761h23.788V24.529c0-5.726-4.642-10.368-10.368-10.368
						H431.445z"/>
				</g>
				<g id="XMLID_1642_">
					<g id="XMLID_1645_">
						<path id="XMLID_2721_" style="fill:#93C0D1;" d="M222.059,104.074H96.186c-4.268,0-7.726-3.459-7.726-7.726
							c0-4.267,3.459-7.726,7.726-7.726h125.873c4.268,0,7.726,3.459,7.726,7.726C229.786,100.615,226.327,104.074,222.059,104.074z
							"/>
					</g>
					<g id="XMLID_1646_">
						<path id="XMLID_2717_" style="fill:#93C0D1;" d="M293.949,104.074h-17.638c-4.268,0-7.726-3.459-7.726-7.726
							c0-4.267,3.459-7.726,7.726-7.726h17.638c4.268,0,7.726,3.459,7.726,7.726C301.675,100.615,298.216,104.074,293.949,104.074z"
							/>
					</g>
					<g id="XMLID_1648_">
						<path id="XMLID_2713_" style="fill:#93C0D1;" d="M334.57,104.074h-17.638c-4.268,0-7.726-3.459-7.726-7.726
							c0-4.267,3.459-7.726,7.726-7.726h17.638c4.268,0,7.726,3.459,7.726,7.726C342.297,100.615,338.838,104.074,334.57,104.074z"
							/>
					</g>
					<g id="XMLID_1650_">
						<path id="XMLID_2709_" style="fill:#93C0D1;" d="M375.192,104.074h-17.638c-4.268,0-7.726-3.459-7.726-7.726
							c0-4.267,3.459-7.726,7.726-7.726h17.638c4.268,0,7.726,3.459,7.726,7.726C382.919,100.615,379.46,104.074,375.192,104.074z"
							/>
					</g>
					<g id="XMLID_1652_">
						<path id="XMLID_2701_" style="fill:#93C0D1;" d="M415.814,104.074h-17.638c-4.268,0-7.726-3.459-7.726-7.726
							c0-4.267,3.459-7.726,7.726-7.726h17.638c4.268,0,7.726,3.459,7.726,7.726C423.54,100.615,420.081,104.074,415.814,104.074z"
							/>
					</g>
				</g>
				<g id="XMLID_1654_">
					<g id="XMLID_1656_">
						<path id="XMLID_2698_" style="fill:#21C69C;" d="M94.028,48.105c-0.016,0-0.031,0-0.047,0
							c-4.267-0.026-7.747-3.506-7.722-7.773c0.025-4.251,3.438-7.681,7.683-7.681c0.016,0,0.031,0,0.047,0l0.085,0.001
							c4.267,0.026,7.705,3.505,7.68,7.772C101.728,44.676,98.274,48.105,94.028,48.105z"/>
					</g>
					<g id="XMLID_1657_">
						<path id="XMLID_2695_" style="fill:#21C69C;" d="M116.086,48.169c-4.268,0-7.769-3.459-7.769-7.726s3.416-7.726,7.684-7.726
							h0.085c4.268,0,7.726,3.459,7.726,7.726S120.353,48.169,116.086,48.169z"/>
					</g>
					<g id="XMLID_1658_">
						<path id="XMLID_2693_" style="fill:#21C69C;" d="M138.145,48.233c-0.016,0-0.031,0-0.046,0
							c-4.268-0.025-7.748-3.505-7.723-7.772c0.024-4.252,3.437-7.681,7.682-7.681c0.016,0,0.031,0,0.046,0l0.086,0.001
							c4.268,0.025,7.706,3.505,7.681,7.772C145.845,44.804,142.39,48.233,138.145,48.233z"/>
					</g>
				</g>
			</g>
		</g>
		<g id="XMLID_1659_">
			<path id="XMLID_904_" style="fill:#38627C;" d="M265.331,392.271h-18.662c-4.268,0-7.726-3.459-7.726-7.726
				c0-4.267,3.459-7.726,7.726-7.726h18.662c4.268,0,7.726,3.459,7.726,7.726C273.057,388.811,269.599,392.271,265.331,392.271z"/>
		</g>
	</g>
	<g id="XMLID_1660_">
		<g id="XMLID_1661_">
			<path id="XMLID_900_" style="fill:#FDB659;" d="M184.315,323.39h-62.206c-5.726,0-10.368-4.642-10.368-10.368v-8.985
				c0-5.726,4.642-10.368,10.368-10.368h62.206c5.726,0,10.368,4.642,10.368,10.368v8.985
				C194.682,318.748,190.041,323.39,184.315,323.39z"/>
		</g>
		<g id="XMLID_1662_">
			<path id="XMLID_897_" style="fill:#FC3E81;" d="M389.892,323.39h-62.206c-5.726,0-10.368-4.642-10.368-10.368v-8.985
				c0-5.726,4.642-10.368,10.368-10.368h62.206c5.726,0,10.368,4.642,10.368,10.368v8.985
				C400.259,318.748,395.618,323.39,389.892,323.39z"/>
		</g>
	</g>
	<g id="XMLID_1665_">
		<g id="XMLID_1664_">
			<path id="XMLID_399_" style="fill:#93C0D1;" d="M256,333.881c-4.268,0-7.726-3.459-7.726-7.726v-37.324
				c0-4.267,3.459-7.726,7.726-7.726s7.726,3.459,7.726,7.726v37.324C263.726,330.422,260.268,333.881,256,333.881z"/>
		</g>
	</g>
	<g id="XMLID_1666_">
		<path id="XMLID_385_" style="fill:#06C7F4;" d="M409.99,186.659h-58.261c-4.268,0-7.726-3.459-7.726-7.726
			c0-4.267,3.459-7.726,7.726-7.726h58.261c4.268,0,7.726,3.459,7.726,7.726C417.716,183.2,414.258,186.659,409.99,186.659z"/>
	</g>
	<g id="XMLID_1667_">
		<path id="XMLID_383_" style="fill:#06C7F4;" d="M409.99,212.233h-11.814c-4.268,0-7.726-3.459-7.726-7.726
			c0-4.267,3.459-7.726,7.726-7.726h11.814c4.268,0,7.726,3.459,7.726,7.726C417.716,208.774,414.258,212.233,409.99,212.233z"/>
	</g>
	<g id="XMLID_1668_">
		<path id="XMLID_381_" style="fill:#06C7F4;" d="M409.99,229.513h-11.814c-4.268,0-7.726-3.459-7.726-7.726
			c0-4.267,3.459-7.726,7.726-7.726h11.814c4.268,0,7.726,3.459,7.726,7.726C417.716,226.054,414.258,229.513,409.99,229.513z"/>
	</g>
</g>
<g>
</g>
<g>
</g>
<g>
</g>
<g>
</g>
<g>
</g>
<g>
</g>
<g>
</g>
<g>
</g>
<g>
</g>
<g>
</g>
<g>
</g>
<g>
</g>
<g>
</g>
<g>
</g>
<g>
</g>
</svg>
