<?xml version="1.0" encoding="iso-8859-1"?>
<!-- Generator: Adobe Illustrator 19.0.0, SVG Export Plug-In . SVG Version: 6.00 Build 0)  -->
<svg version="1.1" id="Layer_1" xmlns="http://www.w3.org/2000/svg" xmlns:xlink="http://www.w3.org/1999/xlink" x="0px" y="0px"
	 viewBox="0 0 512 512" style="enable-background:new 0 0 512 512;" xml:space="preserve">
<g id="XMLID_1825_">
	<g id="XMLID_1826_">
		<g id="XMLID_1827_">
			<path id="XMLID_2785_" style="fill:#BDDFF4;" d="M293.408,396.411h-74.811c0,0-0.603,52.063-26.262,84.448
				c-5.435,6.86-0.39,16.98,8.361,16.98h110.612c8.752,0,13.796-10.12,8.361-16.98C294.011,448.473,293.408,396.411,293.408,396.411
				z"/>
			<path id="XMLID_2782_" style="fill:#ADC9E2;" d="M311.312,497.838h-26.966c8.761,0,13.799-10.119,8.367-16.982
				c-25.66-32.378-26.261-84.445-26.261-84.445h26.956c0,0,0.601,52.067,26.261,84.445
				C325.101,487.719,320.062,497.838,311.312,497.838z"/>
			<path id="XMLID_2779_" style="fill:#E3F4FF;" d="M511.995,73.635V405.42c0,5.813-4.699,10.511-10.511,10.511H10.514
				c-5.802,0-10.511-4.699-10.511-10.511V73.635c0-8.704,7.064-15.767,15.767-15.767h480.459
				C504.942,57.868,511.995,64.932,511.995,73.635z"/>
			<rect id="XMLID_2776_" x="44.332" y="57.873" style="fill:#BDDFF4;" width="423.335" height="307.725"/>
			<path id="XMLID_2773_" style="fill:#BDDFF4;" d="M512,73.632V405.42c0,5.816-4.707,10.513-10.513,10.513H468.31
				c5.806,0,10.513-4.697,10.513-10.513V73.632c0-8.698-7.06-15.759-15.769-15.759h33.177C504.94,57.873,512,64.933,512,73.632z"/>
			<path id="XMLID_2758_" style="fill:#4E7693;" d="M512,353.156v52.264c0,5.816-4.707,10.513-10.513,10.513H10.513
				C4.707,415.933,0,411.236,0,405.42v-52.264H512z"/>
			<path id="XMLID_2755_" style="fill:#38627C;" d="M512,353.156v52.264c0,5.816-4.707,10.513-10.513,10.513H468.31
				c5.806,0,10.513-4.697,10.513-10.513v-52.264H512z"/>
		</g>
		<g id="XMLID_1828_">
			<g id="XMLID_1836_">
				<path id="XMLID_2753_" style="fill:#FDB659;" d="M56.769,24.529v328.627h398.462V24.529c0-5.726-4.642-10.368-10.368-10.368
					H67.137C61.411,14.161,56.769,18.803,56.769,24.529z"/>
				<path id="XMLID_2752_" style="fill:#FD9E28;" d="M431.445,14.161v338.995h23.788V24.529c0-5.726-4.642-10.368-10.368-10.368
					H431.445z"/>
				<path id="XMLID_2749_" style="fill:#618BAA;" d="M56.767,24.529v41.395h398.466V24.529c0-5.726-4.642-10.368-10.368-10.368
					H67.135C61.409,14.161,56.767,18.803,56.767,24.529z"/>
				<path id="XMLID_2747_" style="fill:#FD9E28;" d="M56.767,24.529v41.395h116.966V14.161H67.135
					C61.409,14.161,56.767,18.803,56.767,24.529z"/>
				<path id="XMLID_2744_" style="fill:#4E7693;" d="M431.445,14.161v51.761h23.788V24.529c0-5.726-4.642-10.368-10.368-10.368
					H431.445z"/>
			</g>
			<g id="XMLID_1837_">
				<g id="XMLID_1840_">
					<path id="XMLID_2742_" style="fill:#E86C10;" d="M222.059,104.074H96.186c-4.267,0-7.726-3.459-7.726-7.726
						c0-4.267,3.459-7.726,7.726-7.726h125.873c4.267,0,7.726,3.459,7.726,7.726C229.786,100.615,226.326,104.074,222.059,104.074z"
						/>
				</g>
				<g id="XMLID_1841_">
					<path id="XMLID_2740_" style="fill:#E86C10;" d="M293.949,104.074h-17.638c-4.267,0-7.726-3.459-7.726-7.726
						c0-4.267,3.459-7.726,7.726-7.726h17.638c4.267,0,7.726,3.459,7.726,7.726C301.676,100.615,298.216,104.074,293.949,104.074z"
						/>
				</g>
				<g id="XMLID_1842_">
					<path id="XMLID_2738_" style="fill:#E86C10;" d="M334.571,104.074h-17.638c-4.267,0-7.726-3.459-7.726-7.726
						c0-4.267,3.459-7.726,7.726-7.726h17.638c4.267,0,7.726,3.459,7.726,7.726C342.297,100.615,338.838,104.074,334.571,104.074z"
						/>
				</g>
				<g id="XMLID_1843_">
					<path id="XMLID_2736_" style="fill:#E86C10;" d="M375.192,104.074h-17.638c-4.267,0-7.726-3.459-7.726-7.726
						c0-4.267,3.459-7.726,7.726-7.726h17.638c4.267,0,7.726,3.459,7.726,7.726C382.919,100.615,379.459,104.074,375.192,104.074z"
						/>
				</g>
				<g id="XMLID_1844_">
					<path id="XMLID_2734_" style="fill:#E86C10;" d="M415.814,104.074h-17.638c-4.267,0-7.726-3.459-7.726-7.726
						c0-4.267,3.459-7.726,7.726-7.726h17.638c4.267,0,7.726,3.459,7.726,7.726C423.54,100.615,420.081,104.074,415.814,104.074z"/>
				</g>
			</g>
			<g id="XMLID_1845_">
				<g id="XMLID_1846_">
					<path id="XMLID_2731_" style="fill:#E86C10;" d="M94.028,48.105c-0.016,0-0.031,0-0.047,0
						c-4.267-0.025-7.748-3.505-7.723-7.772c0.025-4.252,3.437-7.681,7.683-7.681c0.016,0,0.031,0,0.047,0l0.085,0.001
						c4.267,0.025,7.706,3.505,7.681,7.772C101.728,44.676,98.274,48.105,94.028,48.105z"/>
				</g>
				<g id="XMLID_1847_">
					<path id="XMLID_2729_" style="fill:#E86C10;" d="M116.085,48.169c-4.267,0-7.769-3.459-7.769-7.726s3.417-7.726,7.684-7.726
						h0.085c4.267,0,7.726,3.459,7.726,7.726S120.352,48.169,116.085,48.169z"/>
				</g>
				<g id="XMLID_1848_">
					<path id="XMLID_2727_" style="fill:#E86C10;" d="M138.144,48.233c-0.016,0-0.031,0-0.047,0
						c-4.267-0.026-7.748-3.506-7.723-7.773c0.026-4.251,3.438-7.681,7.683-7.681c0.016,0,0.031,0,0.047,0l0.085,0.001
						c4.267,0.026,7.706,3.505,7.681,7.772C145.844,44.804,142.39,48.233,138.144,48.233z"/>
				</g>
			</g>
		</g>
	</g>
	<g id="XMLID_1849_">
		<g id="XMLID_1850_">
			<g id="XMLID_1851_">
				<circle id="XMLID_2722_" style="fill:#32DFB7;" cx="136.271" cy="186.536" r="33.177"/>
			</g>
			<g id="XMLID_1852_">
				<circle id="XMLID_2720_" style="fill:#32DFB7;" cx="375.729" cy="186.536" r="33.177"/>
			</g>
		</g>
		<g id="XMLID_1853_">
			<path id="XMLID_2715_" style="fill:#43A3F9;" d="M299.544,176.168c0,17.459-10.264,32.513-25.09,39.449
				c-5.599,2.633-11.861,4.095-18.455,4.095c-6.594,0-12.856-1.462-18.455-4.095c-14.826-6.936-25.09-21.99-25.09-39.449
				c0-24.053,19.491-43.544,43.544-43.544S299.544,152.115,299.544,176.168z"/>
			<path id="XMLID_2712_" style="fill:#BDDFF4;" d="M274.455,207.064v8.553c-5.599,2.633-11.861,4.095-18.455,4.095
				c-6.594,0-12.856-1.462-18.455-4.095v-8.553c0-10.191,8.263-18.455,18.455-18.455c5.101,0,9.704,2.063,13.053,5.402
				C272.391,197.36,274.455,201.963,274.455,207.064z"/>
		</g>
		<g id="XMLID_1854_">
			<circle id="XMLID_2710_" style="fill:#FEDE93;" cx="256" cy="176.168" r="16.588"/>
		</g>
		<g id="XMLID_1857_">
			<g id="XMLID_1858_">
				<path id="XMLID_2708_" style="fill:#FD9E28;" d="M289.177,259.579h-66.353c-4.267,0-7.726-3.459-7.726-7.726
					c0-4.267,3.459-7.726,7.726-7.726h66.353c4.267,0,7.726,3.459,7.726,7.726C296.903,256.12,293.444,259.579,289.177,259.579z"/>
			</g>
			<g id="XMLID_1859_">
				<path id="XMLID_2706_" style="fill:#FD9E28;" d="M280.883,294.829h-49.766c-4.267,0-7.726-3.459-7.726-7.726
					s3.459-7.726,7.726-7.726h49.766c4.267,0,7.726,3.459,7.726,7.726S285.15,294.829,280.883,294.829z"/>
			</g>
			<g id="XMLID_1860_">
				<path id="XMLID_2700_" style="fill:#FD9E28;" d="M272.589,317.638h-33.177c-4.267,0-7.726-3.459-7.726-7.726
					c0-4.267,3.459-7.726,7.726-7.726h33.177c4.267,0,7.726,3.459,7.726,7.726C280.315,314.179,276.856,317.638,272.589,317.638z"/>
			</g>
		</g>
		<g id="XMLID_1861_">
			<g id="XMLID_1862_">
				<path id="XMLID_2696_" style="fill:#FD9E28;" d="M408.906,259.579h-66.354c-4.267,0-7.726-3.459-7.726-7.726
					c0-4.267,3.459-7.726,7.726-7.726h66.354c4.267,0,7.726,3.459,7.726,7.726C416.632,256.12,413.173,259.579,408.906,259.579z"/>
			</g>
			<g id="XMLID_1863_">
				<path id="XMLID_2694_" style="fill:#FD9E28;" d="M400.612,294.829h-49.765c-4.267,0-7.726-3.459-7.726-7.726
					s3.459-7.726,7.726-7.726h49.765c4.267,0,7.726,3.459,7.726,7.726S404.879,294.829,400.612,294.829z"/>
			</g>
			<g id="XMLID_1864_">
				<path id="XMLID_2692_" style="fill:#FD9E28;" d="M392.317,317.638h-33.177c-4.267,0-7.726-3.459-7.726-7.726
					c0-4.267,3.459-7.726,7.726-7.726h33.177c4.267,0,7.726,3.459,7.726,7.726C400.044,314.179,396.585,317.638,392.317,317.638z"/>
			</g>
		</g>
		<g id="XMLID_1865_">
			<g id="XMLID_1866_">
				<path id="XMLID_2689_" style="fill:#FD9E28;" d="M169.448,259.579h-66.354c-4.267,0-7.726-3.459-7.726-7.726
					c0-4.267,3.459-7.726,7.726-7.726h66.354c4.267,0,7.726,3.459,7.726,7.726C177.174,256.12,173.715,259.579,169.448,259.579z"/>
			</g>
			<g id="XMLID_1867_">
				<path id="XMLID_903_" style="fill:#FD9E28;" d="M161.153,294.829h-49.765c-4.267,0-7.726-3.459-7.726-7.726
					s3.459-7.726,7.726-7.726h49.765c4.267,0,7.726,3.459,7.726,7.726S165.421,294.829,161.153,294.829z"/>
			</g>
			<g id="XMLID_1868_">
				<path id="XMLID_900_" style="fill:#FD9E28;" d="M152.859,317.638h-33.177c-4.267,0-7.726-3.459-7.726-7.726
					c0-4.267,3.459-7.726,7.726-7.726h33.177c4.267,0,7.726,3.459,7.726,7.726C160.586,314.179,157.126,317.638,152.859,317.638z"/>
			</g>
		</g>
		<g id="XMLID_1869_">
			<g id="XMLID_1870_">
				<path id="XMLID_896_" style="fill:#21C69C;" d="M375.236,192.189c-0.016,0-0.031,0-0.047,0
					c-4.267-0.025-7.748-3.505-7.723-7.772c0.025-4.252,3.437-7.681,7.683-7.681c0.016,0,0.031,0,0.047,0l0.085,0.001
					c4.267,0.025,7.706,3.505,7.681,7.772C382.936,188.76,379.481,192.189,375.236,192.189z"/>
			</g>
			<g id="XMLID_1871_">
				<path id="XMLID_400_" style="fill:#21C69C;" d="M382.877,203.121v15.824c-2.297,0.505-4.698,0.773-7.149,0.773
					c-2.864,0-5.645-0.361-8.303-1.04v-15.556c0-4.265,3.461-7.726,7.726-7.726C379.416,195.394,382.877,198.856,382.877,203.121z"
					/>
			</g>
		</g>
		<g id="XMLID_1872_">
			<g id="XMLID_1873_">
				<path id="XMLID_397_" style="fill:#21C69C;" d="M136.314,192.189c-0.016,0-0.031,0-0.047,0
					c-4.267-0.025-7.748-3.505-7.723-7.772c0.025-4.252,3.437-7.681,7.683-7.681c0.016,0,0.031,0,0.047,0l0.085,0.001
					c4.267,0.025,7.706,3.505,7.681,7.772C144.015,188.76,140.56,192.189,136.314,192.189z"/>
			</g>
			<g id="XMLID_1874_">
				<path id="XMLID_385_" style="fill:#21C69C;" d="M143.957,203.121v15.7c-2.462,0.587-5.038,0.896-7.685,0.896
					c-2.679,0-5.275-0.319-7.768-0.907v-15.69c0-4.265,3.461-7.726,7.726-7.726C140.496,195.394,143.957,198.856,143.957,203.121z"
					/>
			</g>
		</g>
	</g>
	<g id="XMLID_1875_">
		<path id="XMLID_381_" style="fill:#38627C;" d="M265.331,392.271h-18.662c-4.267,0-7.726-3.459-7.726-7.726
			c0-4.267,3.459-7.726,7.726-7.726h18.662c4.267,0,7.726,3.459,7.726,7.726C273.057,388.811,269.598,392.271,265.331,392.271z"/>
	</g>
</g>
<g>
</g>
<g>
</g>
<g>
</g>
<g>
</g>
<g>
</g>
<g>
</g>
<g>
</g>
<g>
</g>
<g>
</g>
<g>
</g>
<g>
</g>
<g>
</g>
<g>
</g>
<g>
</g>
<g>
</g>
</svg>
