<?xml version="1.0" encoding="iso-8859-1"?>
<!-- Generator: Adobe Illustrator 19.0.0, SVG Export Plug-In . SVG Version: 6.00 Build 0)  -->
<svg version="1.1" id="Layer_1" xmlns="http://www.w3.org/2000/svg" xmlns:xlink="http://www.w3.org/1999/xlink" x="0px" y="0px"
	 viewBox="0 0 512 512" style="enable-background:new 0 0 512 512;" xml:space="preserve">
<g id="XMLID_2030_">
	<g id="XMLID_2031_">
		<path id="XMLID_2034_" style="fill:#E3F4FF;" d="M512,43.242v425.516c0,5.687-4.615,10.302-10.302,10.302H10.302
			C4.615,479.06,0,474.445,0,468.758V43.242C0,37.555,4.615,32.94,10.302,32.94h491.396C507.385,32.94,512,37.555,512,43.242z"/>
		<path id="XMLID_2037_" style="fill:#BDDFF4;" d="M512,43.242v425.516c0,5.687-4.615,10.302-10.302,10.302h-30.565
			c5.687,0,10.302-4.615,10.302-10.302V43.242c0-5.687-4.615-10.302-10.302-10.302h30.565C507.385,32.94,512,37.555,512,43.242z"/>
		<g id="XMLID_2038_">
			<path id="XMLID_2041_" style="fill:#618BAA;" d="M512,43.242v55.187H0V43.242C0,37.555,4.615,32.94,10.302,32.94h491.396
				C507.385,32.94,512,37.555,512,43.242z"/>
		</g>
		<path id="XMLID_2044_" style="fill:#4E7693;" d="M512,43.242v55.187h-30.565V43.242c0-5.687-4.615-10.302-10.302-10.302h30.565
			C507.385,32.94,512,37.555,512,43.242z"/>
		<path id="XMLID_2045_" style="fill:#FD6096;" d="M150.293,32.94v65.489H0V43.242C0,37.555,4.615,32.94,10.302,32.94H150.293z"/>
		<g id="XMLID_2046_">
			<g id="XMLID_2047_">
				<path id="XMLID_2048_" style="fill:#FC3E81;" d="M47.877,73.33c-0.012,0-0.024,0-0.037,0l-0.109-0.001
					c-4.267-0.02-7.71-3.495-7.69-7.762c0.02-4.255,3.475-7.691,7.725-7.691c0.012,0,0.024,0,0.037,0l0.109,0.001
					c4.267,0.02,7.71,3.495,7.69,7.762C55.582,69.895,52.128,73.33,47.877,73.33z"/>
			</g>
			<g id="XMLID_2049_">
				<path id="XMLID_2050_" style="fill:#FC3E81;" d="M76.219,73.412h-0.109c-4.268,0-7.726-3.459-7.726-7.726
					c0-4.267,3.459-7.726,7.726-7.726h0.109c4.268,0,7.726,3.459,7.726,7.726C83.946,69.953,80.487,73.412,76.219,73.412z"/>
			</g>
			<g id="XMLID_2051_">
				<path id="XMLID_2052_" style="fill:#FC3E81;" d="M104.564,73.495c-0.012,0-0.024,0-0.036,0l-0.11-0.001
					c-4.268-0.02-7.71-3.494-7.691-7.762c0.019-4.255,3.475-7.691,7.725-7.691c0.012,0,0.024,0,0.036,0l0.11,0.001
					c4.268,0.02,7.71,3.494,7.691,7.762C112.271,70.059,108.815,73.495,104.564,73.495z"/>
			</g>
		</g>
	</g>
	<g id="XMLID_2053_">
		<g id="XMLID_2054_">
			<g id="XMLID_2055_">
				<path id="XMLID_2058_" style="fill:#93C0D1;" d="M212.389,145.247H50.651c-4.268,0-7.726-3.459-7.726-7.726
					c0-4.267,3.459-7.726,7.726-7.726h161.738c4.268,0,7.726,3.459,7.726,7.726C220.116,141.788,216.657,145.247,212.389,145.247z"
					/>
			</g>
			<g id="XMLID_2059_">
				<path id="XMLID_2062_" style="fill:#93C0D1;" d="M304.762,145.247h-22.664c-4.268,0-7.726-3.459-7.726-7.726
					c0-4.267,3.459-7.726,7.726-7.726h22.664c4.268,0,7.726,3.459,7.726,7.726C312.488,141.788,309.029,145.247,304.762,145.247z"/>
			</g>
			<g id="XMLID_2063_">
				<path id="XMLID_2066_" style="fill:#93C0D1;" d="M356.958,145.247h-22.664c-4.268,0-7.726-3.459-7.726-7.726
					c0-4.267,3.459-7.726,7.726-7.726h22.664c4.268,0,7.726,3.459,7.726,7.726C364.684,141.788,361.225,145.247,356.958,145.247z"/>
			</g>
			<g id="XMLID_2070_">
				<g id="XMLID_2068_">
					<path id="XMLID_2069_" style="fill:#93C0D1;" d="M409.154,145.247H386.49c-4.268,0-7.726-3.459-7.726-7.726
						c0-4.267,3.459-7.726,7.726-7.726h22.664c4.268,0,7.726,3.459,7.726,7.726C416.88,141.788,413.422,145.247,409.154,145.247z"/>
				</g>
			</g>
			<g id="XMLID_2075_">
				<g id="XMLID_2073_">
					<path id="XMLID_2074_" style="fill:#93C0D1;" d="M461.349,145.247h-22.664c-4.268,0-7.726-3.459-7.726-7.726
						c0-4.267,3.459-7.726,7.726-7.726h22.664c4.268,0,7.726,3.459,7.726,7.726C469.075,141.788,465.617,145.247,461.349,145.247z"
						/>
				</g>
			</g>
		</g>
		<g id="XMLID_2077_">
			<path id="XMLID_2706_" style="fill:#32DFB7;" d="M193.243,350.066H69.797c-5.69,0-10.302-4.612-10.302-10.302V216.318
				c0-5.69,4.612-10.302,10.302-10.302h123.446c5.69,0,10.302,4.612,10.302,10.302v123.446
				C203.545,345.454,198.932,350.066,193.243,350.066z"/>
			<g id="XMLID_2078_">
				<path id="XMLID_2079_" style="fill:#21C69C;" d="M111.307,259.586l3.551-3.551c3.017-3.017,3.017-7.909,0-10.927
					c-3.018-3.017-7.909-3.017-10.928,0l-3.55,3.55l-3.55-3.55c-3.018-3.017-7.909-3.017-10.928,0
					c-3.017,3.017-3.017,7.909,0,10.927l3.551,3.551l-3.551,3.551c-3.017,3.017-3.017,7.909,0,10.927
					c1.509,1.509,3.487,2.263,5.464,2.263s3.955-0.755,5.464-2.263l3.55-3.55l3.55,3.55c1.509,1.509,3.487,2.263,5.464,2.263
					c1.977,0,3.955-0.755,5.464-2.263c3.017-3.017,3.017-7.909,0-10.927L111.307,259.586z"/>
				<path id="XMLID_2080_" style="fill:#21C69C;" d="M173.586,259.586l3.551-3.551c3.017-3.017,3.017-7.909,0-10.927
					c-3.018-3.017-7.909-3.017-10.928,0l-3.55,3.55l-3.55-3.55c-3.018-3.017-7.909-3.017-10.928,0
					c-3.017,3.017-3.017,7.909,0,10.927l3.551,3.551l-3.551,3.551c-3.017,3.017-3.017,7.909,0,10.927
					c1.509,1.509,3.487,2.263,5.464,2.263c1.977,0,3.955-0.755,5.464-2.263l3.55-3.55l3.55,3.55
					c1.509,1.509,3.487,2.263,5.464,2.263c1.977,0,3.955-0.755,5.464-2.263c3.017-3.017,3.017-7.909,0-10.927L173.586,259.586z"/>
			</g>
			<path id="XMLID_2081_" style="fill:#FD6096;" d="M171.673,301.146v43.436c0,7.872-6.382,14.254-14.254,14.254h0
				c-7.872,0-14.254-6.382-14.254-14.254v-43.436"/>
			<g id="XMLID_2082_">
				<path id="XMLID_2083_" style="fill:#21C69C;" d="M171.673,308.873H91.366c-4.268,0-7.726-3.459-7.726-7.726
					c0-4.267,3.459-7.726,7.726-7.726h80.307c4.268,0,7.726,3.459,7.726,7.726C179.399,305.413,175.941,308.873,171.673,308.873z"/>
			</g>
		</g>
		<g id="XMLID_2084_">
			<path id="XMLID_2085_" style="fill:#749DB7;" d="M304.762,265.259c-4.268,0-7.726,3.459-7.726,7.726v12.801h-19.401
				c-1.421,0-2.575-1.155-2.575-2.575v-72.809c0-4.267-3.459-7.726-7.726-7.726s-7.726,3.459-7.726,7.726v72.809
				c0,9.941,8.088,18.028,18.028,18.028h19.401v53.212c0,4.267,3.459,7.726,7.726,7.726s7.726-3.459,7.726-7.726v-81.466
				C312.488,268.718,309.029,265.259,304.762,265.259z"/>
			<path id="XMLID_2086_" style="fill:#749DB7;" d="M427.868,265.259c-4.268,0-7.726,3.459-7.726,7.726v12.801H400.74
				c-1.421,0-2.575-1.155-2.575-2.575v-72.809c0-4.267-3.459-7.726-7.726-7.726s-7.726,3.459-7.726,7.726v72.809
				c0,9.941,8.088,18.028,18.028,18.028h19.401v53.212c0,4.267,3.459,7.726,7.726,7.726c4.268,0,7.726-3.459,7.726-7.726v-81.466
				C435.595,268.718,432.136,265.259,427.868,265.259z"/>
			<g id="XMLID_2093_">
				<g id="XMLID_2088_">
					<g id="XMLID_2089_">
						<path id="XMLID_2090_" style="fill:#749DB7;" d="M356.013,362.178h-16.826c-9.941,0-18.028-8.088-18.028-18.028V220.703
							c0-9.941,8.088-18.028,18.028-18.028h16.826c9.941,0,18.028,8.088,18.028,18.028v123.446
							C374.041,354.09,365.954,362.178,356.013,362.178z M339.187,218.128c-1.421,0-2.575,1.155-2.575,2.575v123.446
							c0,1.42,1.155,2.575,2.575,2.575h16.826c1.421,0,2.575-1.155,2.575-2.575V220.703c0-1.42-1.155-2.575-2.575-2.575H339.187z"/>
					</g>
				</g>
			</g>
		</g>
		<g id="XMLID_2098_">
			<g id="XMLID_2099_">
				<path id="XMLID_2102_" style="fill:#93C0D1;" d="M327.77,415.845H184.23c-4.268,0-7.726-3.459-7.726-7.726
					c0-4.267,3.459-7.726,7.726-7.726H327.77c4.268,0,7.726,3.459,7.726,7.726C335.496,412.385,332.037,415.845,327.77,415.845z"/>
			</g>
			<g id="XMLID_2103_">
				<path id="XMLID_2106_" style="fill:#93C0D1;" d="M287.249,438.509h-62.497c-4.268,0-7.726-3.459-7.726-7.726
					c0-4.267,3.459-7.726,7.726-7.726h62.497c4.268,0,7.726,3.459,7.726,7.726C294.975,435.049,291.516,438.509,287.249,438.509z"/>
			</g>
		</g>
	</g>
</g>
<g>
</g>
<g>
</g>
<g>
</g>
<g>
</g>
<g>
</g>
<g>
</g>
<g>
</g>
<g>
</g>
<g>
</g>
<g>
</g>
<g>
</g>
<g>
</g>
<g>
</g>
<g>
</g>
<g>
</g>
</svg>
