<?xml version="1.0" encoding="iso-8859-1"?>
<!-- Generator: Adobe Illustrator 19.0.0, SVG Export Plug-In . SVG Version: 6.00 Build 0)  -->
<svg version="1.1" id="Layer_1" xmlns="http://www.w3.org/2000/svg" xmlns:xlink="http://www.w3.org/1999/xlink" x="0px" y="0px"
	 viewBox="0 0 512 512" style="enable-background:new 0 0 512 512;" xml:space="preserve">
<g id="XMLID_484_">
	<g id="XMLID_486_">
		<g id="XMLID_487_">
			<path id="XMLID_490_" style="fill:#E3F4FF;" d="M458.577,8.152v121.312c0,4.5-3.652,8.152-8.152,8.152H61.577
				c-4.5,0-8.152-3.652-8.152-8.152V8.152c0-4.5,3.652-8.152,8.152-8.152h388.848C454.925,0,458.577,3.652,458.577,8.152z"/>
			<path id="XMLID_493_" style="fill:#BDDFF4;" d="M458.577,8.152v121.312c0,4.5-3.652,8.152-8.152,8.152h-24.187
				c4.5,0,8.152-3.652,8.152-8.152V8.152c0-4.5-3.652-8.152-8.152-8.152h24.187C454.925,0,458.577,3.652,458.577,8.152z"/>
			<g id="XMLID_494_">
				<path id="XMLID_497_" style="fill:#27E6FC;" d="M458.577,8.152v50.192H53.425V8.152c0-4.5,3.652-8.152,8.152-8.152h388.848
					C454.925,0,458.577,3.652,458.577,8.152z"/>
			</g>
			<path id="XMLID_498_" style="fill:#06C7F4;" d="M458.577,8.152v50.192H434.39V8.152c0-4.5-3.652-8.152-8.152-8.152h24.187
				C454.925,0,458.577,3.652,458.577,8.152z"/>
		</g>
		<path id="XMLID_501_" style="fill:#1685FB;" d="M406.67,29.171l0.067-0.067c2.972-2.973,2.972-7.792,0-10.765
			c-2.973-2.971-7.792-2.971-10.765,0l-0.067,0.067l-0.067-0.067c-2.973-2.971-7.792-2.971-10.765,0
			c-2.972,2.973-2.972,7.792,0,10.765l0.067,0.067l-0.067,0.067c-2.972,2.973-2.972,7.792,0,10.765
			c1.487,1.486,3.435,2.229,5.383,2.229s3.896-0.743,5.383-2.229l0.067-0.067l0.067,0.067c1.487,1.486,3.435,2.229,5.383,2.229
			s3.896-0.743,5.383-2.229c2.972-2.973,2.972-7.792,0-10.765L406.67,29.171z"/>
		<g id="XMLID_502_">
			<path id="XMLID_503_" style="fill:#93C0D1;" d="M187.696,104.091h-59.392c-4.204,0-7.611-3.407-7.611-7.611
				s3.407-7.611,7.611-7.611h59.392c4.204,0,7.611,3.407,7.611,7.611S191.9,104.091,187.696,104.091z"/>
		</g>
		<g id="XMLID_504_">
			<path id="XMLID_505_" style="fill:#93C0D1;" d="M383.699,104.091H218.854c-4.204,0-7.611-3.407-7.611-7.611
				s3.407-7.611,7.611-7.611h164.844c4.204,0,7.612,3.407,7.612,7.611S387.903,104.091,383.699,104.091z"/>
		</g>
	</g>
	<g id="XMLID_506_">
		<path id="XMLID_2720_" style="fill:#FDB659;" d="M74.915,372.403H31.677c-8.28,0-14.992-6.712-14.992-14.992v-43.237
			c0-8.28,6.712-14.992,14.992-14.992h43.237c8.28,0,14.992,6.712,14.992,14.992v43.237
			C89.906,365.691,83.194,372.403,74.915,372.403z"/>
		<path id="XMLID_2719_" style="fill:#9AF5FE;" d="M277.619,372.403h-43.237c-8.28,0-14.992-6.712-14.992-14.992v-43.237
			c0-8.28,6.712-14.992,14.992-14.992h43.237c8.28,0,14.992,6.712,14.992,14.992v43.237
			C292.61,365.691,285.898,372.403,277.619,372.403z"/>
		<path id="XMLID_2718_" style="fill:#06C7F4;" d="M480.323,372.403h-43.237c-8.28,0-14.992-6.712-14.992-14.992v-43.237
			c0-8.28,6.712-14.992,14.992-14.992h43.237c8.28,0,14.992,6.712,14.992,14.992v43.237
			C495.314,365.691,488.602,372.403,480.323,372.403z"/>
		<g id="XMLID_507_">
			<g id="XMLID_508_">
				<path id="XMLID_509_" style="fill:#93C0D1;" d="M89.906,424.728h-73.22c-4.204,0-7.611-3.407-7.611-7.612
					s3.407-7.611,7.611-7.611h73.22c4.204,0,7.611,3.407,7.611,7.611S94.11,424.728,89.906,424.728z"/>
			</g>
			<g id="XMLID_510_">
				<path id="XMLID_511_" style="fill:#93C0D1;" d="M89.906,452.713h-73.22c-4.204,0-7.611-3.407-7.611-7.611
					s3.407-7.612,7.611-7.612h73.22c4.204,0,7.611,3.407,7.611,7.612S94.11,452.713,89.906,452.713z"/>
			</g>
			<g id="XMLID_512_">
				<path id="XMLID_513_" style="fill:#93C0D1;" d="M89.906,480.697h-73.22c-4.204,0-7.611-3.407-7.611-7.611
					s3.407-7.612,7.611-7.612h73.22c4.204,0,7.611,3.407,7.611,7.612S94.11,480.697,89.906,480.697z"/>
			</g>
		</g>
		<g id="XMLID_514_">
			<g id="XMLID_515_">
				<path id="XMLID_516_" style="fill:#93C0D1;" d="M292.611,424.728h-73.221c-4.204,0-7.611-3.407-7.611-7.612
					s3.407-7.611,7.611-7.611h73.221c4.204,0,7.612,3.407,7.612,7.611S296.815,424.728,292.611,424.728z"/>
			</g>
			<g id="XMLID_517_">
				<path id="XMLID_518_" style="fill:#93C0D1;" d="M292.611,452.713h-73.221c-4.204,0-7.611-3.407-7.611-7.611
					s3.407-7.612,7.611-7.612h73.221c4.204,0,7.612,3.407,7.612,7.612S296.815,452.713,292.611,452.713z"/>
			</g>
			<g id="XMLID_519_">
				<path id="XMLID_520_" style="fill:#93C0D1;" d="M292.611,480.697h-73.221c-4.204,0-7.611-3.407-7.611-7.611
					s3.407-7.612,7.611-7.612h73.221c4.204,0,7.612,3.407,7.612,7.612S296.815,480.697,292.611,480.697z"/>
			</g>
		</g>
		<g id="XMLID_521_">
			<g id="XMLID_522_">
				<path id="XMLID_523_" style="fill:#93C0D1;" d="M495.314,424.728h-73.22c-4.204,0-7.611-3.407-7.611-7.612
					s3.407-7.611,7.611-7.611h73.22c4.204,0,7.611,3.407,7.611,7.611S499.518,424.728,495.314,424.728z"/>
			</g>
			<g id="XMLID_524_">
				<path id="XMLID_525_" style="fill:#93C0D1;" d="M495.314,452.713h-73.22c-4.204,0-7.611-3.407-7.611-7.611
					s3.407-7.612,7.611-7.612h73.22c4.204,0,7.611,3.407,7.611,7.612S499.518,452.713,495.314,452.713z"/>
			</g>
			<g id="XMLID_526_">
				<path id="XMLID_527_" style="fill:#93C0D1;" d="M495.314,480.697h-73.22c-4.204,0-7.611-3.407-7.611-7.611
					s3.407-7.612,7.611-7.612h73.22c4.204,0,7.611,3.407,7.611,7.612S499.518,480.697,495.314,480.697z"/>
			</g>
		</g>
	</g>
	<path id="XMLID_528_" style="fill:#BDDFF4;" d="M458.704,229.007H263.612v-65.692c0-4.204-3.407-7.611-7.612-7.611
		c-4.204,0-7.611,3.407-7.611,7.611v65.692H53.296c-4.204,0-7.611,3.407-7.611,7.611v31.261c0,4.204,3.407,7.611,7.611,7.611
		s7.611-3.407,7.611-7.611V244.23h187.482v23.649c0,4.204,3.407,7.611,7.611,7.611c4.204,0,7.612-3.407,7.612-7.611V244.23h187.48
		v23.649c0,4.204,3.407,7.611,7.612,7.611s7.611-3.407,7.611-7.611v-31.261C466.315,232.414,462.908,229.007,458.704,229.007z"/>
	<g id="XMLID_529_">
		<g id="XMLID_530_">
			<path id="XMLID_531_" style="fill:#BDDFF4;" d="M193.19,343.404h-76.974c-4.204,0-7.611-3.407-7.611-7.611
				s3.407-7.612,7.611-7.612h76.974c4.204,0,7.611,3.407,7.611,7.612S197.394,343.404,193.19,343.404z"/>
		</g>
		<g id="XMLID_532_">
			<path id="XMLID_533_" style="fill:#BDDFF4;" d="M395.787,343.404h-76.975c-4.204,0-7.612-3.407-7.612-7.611
				s3.407-7.612,7.612-7.612h76.975c4.204,0,7.611,3.407,7.611,7.612S399.991,343.404,395.787,343.404z"/>
		</g>
	</g>
	<g id="XMLID_534_">
		<g id="XMLID_535_">
			<path id="XMLID_536_" style="fill:#93C0D1;" d="M244.254,512h-0.112c-4.204,0-7.611-3.407-7.611-7.612s3.407-7.611,7.611-7.611
				h0.112c4.204,0,7.611,3.407,7.611,7.611S248.458,512,244.254,512z"/>
		</g>
		<g id="XMLID_537_">
			<path id="XMLID_538_" style="fill:#93C0D1;" d="M267.858,512h-0.112c-4.204,0-7.611-3.407-7.611-7.612s3.407-7.611,7.611-7.611
				h0.112c4.204,0,7.611,3.407,7.611,7.611S272.062,512,267.858,512z"/>
		</g>
	</g>
	<g id="XMLID_539_">
		<g id="XMLID_540_">
			<path id="XMLID_541_" style="fill:#93C0D1;" d="M41.517,512h-0.112c-4.204,0-7.611-3.407-7.611-7.612s3.407-7.611,7.611-7.611
				h0.112c4.204,0,7.611,3.407,7.611,7.611S45.722,512,41.517,512z"/>
		</g>
		<g id="XMLID_542_">
			<path id="XMLID_543_" style="fill:#93C0D1;" d="M65.121,512H65.01c-4.204,0-7.611-3.407-7.611-7.612s3.407-7.611,7.611-7.611
				h0.111c4.204,0,7.611,3.407,7.611,7.611S69.325,512,65.121,512z"/>
		</g>
	</g>
	<g id="XMLID_544_">
		<g id="XMLID_545_">
			<path id="XMLID_546_" style="fill:#93C0D1;" d="M446.993,512h-0.112c-4.204,0-7.612-3.407-7.612-7.612s3.407-7.611,7.612-7.611
				h0.112c4.204,0,7.611,3.407,7.611,7.611S451.197,512,446.993,512z"/>
		</g>
		<g id="XMLID_547_">
			<path id="XMLID_548_" style="fill:#93C0D1;" d="M470.597,512h-0.111c-4.204,0-7.611-3.407-7.611-7.612s3.407-7.611,7.611-7.611
				h0.111c4.204,0,7.612,3.407,7.612,7.611S474.801,512,470.597,512z"/>
		</g>
	</g>
</g>
<g>
</g>
<g>
</g>
<g>
</g>
<g>
</g>
<g>
</g>
<g>
</g>
<g>
</g>
<g>
</g>
<g>
</g>
<g>
</g>
<g>
</g>
<g>
</g>
<g>
</g>
<g>
</g>
<g>
</g>
</svg>
