<?xml version="1.0" encoding="iso-8859-1"?>
<!-- Generator: Adobe Illustrator 19.0.0, SVG Export Plug-In . SVG Version: 6.00 Build 0)  -->
<svg version="1.1" id="Layer_1" xmlns="http://www.w3.org/2000/svg" xmlns:xlink="http://www.w3.org/1999/xlink" x="0px" y="0px"
	 viewBox="0 0 512 512" style="enable-background:new 0 0 512 512;" xml:space="preserve">
<g id="XMLID_1414_">
	<g id="XMLID_1415_">
		<path id="XMLID_1418_" style="fill:#E3F4FF;" d="M512,43.242v425.516c0,5.687-4.615,10.302-10.302,10.302H10.302
			C4.615,479.06,0,474.445,0,468.758V43.242C0,37.555,4.615,32.94,10.302,32.94h491.396C507.385,32.94,512,37.555,512,43.242z"/>
		<path id="XMLID_1421_" style="fill:#BDDFF4;" d="M512,43.242v425.516c0,5.687-4.615,10.302-10.302,10.302h-30.565
			c5.687,0,10.302-4.615,10.302-10.302V43.242c0-5.687-4.615-10.302-10.302-10.302h30.565C507.385,32.94,512,37.555,512,43.242z"/>
		<g id="XMLID_1422_">
			<path id="XMLID_1425_" style="fill:#618BAA;" d="M512,43.242v55.187H0V43.242C0,37.555,4.615,32.94,10.302,32.94h491.396
				C507.385,32.94,512,37.555,512,43.242z"/>
		</g>
		<path id="XMLID_1428_" style="fill:#4E7693;" d="M512,43.242v55.187h-30.565V43.242c0-5.687-4.615-10.302-10.302-10.302h30.565
			C507.385,32.94,512,37.555,512,43.242z"/>
		<path id="XMLID_1429_" style="fill:#FDB659;" d="M150.293,32.94v65.489H0V43.242C0,37.555,4.615,32.94,10.302,32.94H150.293z"/>
		<g id="XMLID_1430_">
			<g id="XMLID_1431_">
				<path id="XMLID_1432_" style="fill:#FD9E28;" d="M47.878,73.33c-0.013,0-0.024,0-0.037,0l-0.109-0.001
					c-4.267-0.02-7.71-3.495-7.691-7.762c0.02-4.255,3.475-7.691,7.726-7.691c0.012,0,0.024,0,0.036,0l0.109,0.001
					c4.267,0.02,7.71,3.495,7.691,7.762C55.583,69.894,52.128,73.33,47.878,73.33z"/>
			</g>
			<g id="XMLID_1433_">
				<path id="XMLID_1434_" style="fill:#FD9E28;" d="M76.22,73.412h-0.109c-4.267,0-7.726-3.459-7.726-7.726
					c0-4.267,3.459-7.726,7.726-7.726h0.109c4.267,0,7.726,3.459,7.726,7.726C83.946,69.953,80.487,73.412,76.22,73.412z"/>
			</g>
			<g id="XMLID_1435_">
				<path id="XMLID_1436_" style="fill:#FD9E28;" d="M104.564,73.495c-0.013,0-0.025,0-0.037,0l-0.109-0.001
					c-4.267-0.02-7.71-3.495-7.691-7.762c0.02-4.255,3.475-7.691,7.725-7.691c0.013,0,0.025,0,0.037,0l0.109,0.001
					c4.267,0.02,7.71,3.495,7.691,7.762C112.27,70.059,108.814,73.495,104.564,73.495z"/>
			</g>
		</g>
	</g>
	<g id="XMLID_1437_">
		<path id="XMLID_2690_" style="fill:#43A3F9;" d="M437.978,330.257H74.067c-4.798,0-8.688-3.89-8.688-8.688v-71.895
			c0-4.798,3.89-8.688,8.688-8.688h363.91c4.798,0,8.688,3.89,8.688,8.688v71.895C446.666,326.367,442.776,330.257,437.978,330.257z
			"/>
		<path id="XMLID_1441_" style="fill:#1685FB;" d="M446.666,249.677v71.894c0,4.796-3.892,8.688-8.688,8.688h-25.195
			c4.805,0,8.688-3.892,8.688-8.688v-71.894c0-4.805-3.884-8.688-8.688-8.688h25.195
			C442.773,240.989,446.666,244.873,446.666,249.677z"/>
		<g id="XMLID_1442_">
			<path id="XMLID_1443_" style="fill:#93C0D1;" d="M199.198,222.295H75.379c-4.267,0-7.726-3.459-7.726-7.726
				c0-4.267,3.459-7.726,7.726-7.726h123.818c4.267,0,7.726,3.459,7.726,7.726C206.924,218.836,203.465,222.295,199.198,222.295z"/>
		</g>
		<path id="XMLID_1444_" style="fill:#1685FB;" d="M129.103,285.439l4.366-4.366c3.018-3.017,3.018-7.909,0-10.927
			c-3.017-3.017-7.909-3.017-10.927,0l-4.366,4.366l-4.366-4.366c-3.017-3.017-7.909-3.017-10.927,0
			c-3.018,3.017-3.018,7.909,0,10.927l4.366,4.366l-4.366,4.366c-3.018,3.017-3.018,7.909,0,10.927
			c1.509,1.509,3.486,2.263,5.463,2.263s3.955-0.755,5.463-2.263l4.366-4.366l4.366,4.366c1.509,1.509,3.486,2.263,5.463,2.263
			c1.977,0,3.955-0.755,5.463-2.263c3.018-3.017,3.018-7.909,0-10.927L129.103,285.439z"/>
		<path id="XMLID_1445_" style="fill:#1685FB;" d="M193.394,285.439l4.366-4.366c3.018-3.017,3.018-7.909,0-10.927
			c-3.017-3.017-7.909-3.017-10.927,0l-4.366,4.366l-4.366-4.366c-3.017-3.017-7.909-3.017-10.927,0
			c-3.018,3.017-3.018,7.909,0,10.927l4.366,4.366l-4.366,4.366c-3.018,3.017-3.018,7.909,0,10.927
			c1.509,1.509,3.486,2.263,5.463,2.263c1.977,0,3.955-0.755,5.463-2.263l4.366-4.366l4.366,4.366
			c1.509,1.509,3.486,2.263,5.463,2.263c1.977,0,3.955-0.755,5.463-2.263c3.018-3.017,3.018-7.909,0-10.927L193.394,285.439z"/>
		<path id="XMLID_1446_" style="fill:#1685FB;" d="M257.687,285.439l4.366-4.366c3.017-3.017,3.017-7.909,0-10.927
			c-3.018-3.017-7.909-3.017-10.927,0l-4.366,4.366l-4.366-4.366c-3.017-3.017-7.909-3.017-10.927,0
			c-3.018,3.017-3.018,7.909,0,10.927l4.366,4.366l-4.366,4.366c-3.018,3.017-3.018,7.909,0,10.927
			c1.509,1.509,3.486,2.263,5.463,2.263c1.977,0,3.955-0.755,5.463-2.263l4.366-4.366l4.366,4.366
			c1.509,1.509,3.486,2.263,5.463,2.263c1.977,0,3.955-0.755,5.464-2.263c3.017-3.017,3.017-7.909,0-10.927L257.687,285.439z"/>
		<path id="XMLID_1447_" style="fill:#1685FB;" d="M321.979,285.439l4.366-4.366c3.017-3.017,3.017-7.909,0-10.927
			c-3.018-3.017-7.909-3.017-10.928,0l-4.366,4.366l-4.366-4.366c-3.018-3.017-7.909-3.017-10.928,0
			c-3.017,3.017-3.017,7.909,0,10.927l4.366,4.366l-4.366,4.366c-3.017,3.017-3.017,7.909,0,10.927
			c1.509,1.509,3.487,2.263,5.464,2.263c1.977,0,3.955-0.755,5.464-2.263l4.366-4.366l4.366,4.366
			c1.509,1.509,3.487,2.263,5.464,2.263s3.955-0.755,5.464-2.263c3.017-3.017,3.017-7.909,0-10.927L321.979,285.439z"/>
		<path id="XMLID_400_" style="fill:#27E6FC;" d="M437.978,441.33H74.067c-4.798,0-8.688-3.89-8.688-8.688v-71.895
			c0-4.798,3.89-8.688,8.688-8.688h363.91c4.798,0,8.688,3.89,8.688,8.688v71.895C446.666,437.44,442.776,441.33,437.978,441.33z"/>
		<path id="XMLID_1448_" style="fill:#06C7F4;" d="M446.666,360.746v71.894c0,4.796-3.892,8.688-8.688,8.688h-25.195
			c4.805,0,8.688-3.892,8.688-8.688v-71.894c0-4.796-3.884-8.688-8.688-8.688h25.195
			C442.773,352.058,446.666,355.95,446.666,360.746z"/>
		<path id="XMLID_1449_" style="fill:#06C7F4;" d="M129.103,396.512l4.366-4.366c3.018-3.017,3.018-7.909,0-10.927
			c-3.017-3.017-7.909-3.017-10.927,0l-4.366,4.366l-4.366-4.366c-3.017-3.017-7.909-3.017-10.927,0
			c-3.018,3.017-3.018,7.909,0,10.927l4.366,4.366l-4.366,4.366c-3.018,3.017-3.018,7.909,0,10.927
			c1.509,1.509,3.486,2.263,5.463,2.263s3.955-0.755,5.463-2.263l4.366-4.366l4.366,4.366c1.509,1.509,3.486,2.263,5.463,2.263
			c1.977,0,3.955-0.755,5.463-2.263c3.018-3.017,3.018-7.909,0-10.927L129.103,396.512z"/>
		<path id="XMLID_1450_" style="fill:#06C7F4;" d="M193.394,396.512l4.366-4.366c3.018-3.017,3.018-7.909,0-10.927
			c-3.017-3.017-7.909-3.017-10.927,0l-4.366,4.366l-4.366-4.366c-3.017-3.017-7.909-3.017-10.927,0
			c-3.018,3.017-3.018,7.909,0,10.927l4.366,4.366l-4.366,4.366c-3.018,3.017-3.018,7.909,0,10.927
			c1.509,1.509,3.486,2.263,5.463,2.263c1.977,0,3.955-0.755,5.463-2.263l4.366-4.366l4.366,4.366
			c1.509,1.509,3.486,2.263,5.463,2.263c1.977,0,3.955-0.755,5.463-2.263c3.018-3.017,3.018-7.909,0-10.927L193.394,396.512z"/>
		<path id="XMLID_1451_" style="fill:#06C7F4;" d="M257.687,396.512l4.366-4.366c3.017-3.017,3.017-7.909,0-10.927
			c-3.018-3.017-7.909-3.017-10.927,0l-4.366,4.366l-4.366-4.366c-3.017-3.017-7.909-3.017-10.927,0
			c-3.018,3.017-3.018,7.909,0,10.927l4.366,4.366l-4.366,4.366c-3.018,3.017-3.018,7.909,0,10.927
			c1.509,1.509,3.486,2.263,5.463,2.263c1.977,0,3.955-0.755,5.463-2.263l4.366-4.366l4.366,4.366
			c1.509,1.509,3.486,2.263,5.463,2.263c1.977,0,3.955-0.755,5.464-2.263c3.017-3.017,3.017-7.909,0-10.927L257.687,396.512z"/>
		<path id="XMLID_385_" style="fill:#FDB659;" d="M126.864,191.394H74.067c-4.798,0-8.688-3.89-8.688-8.688v-13.901
			c0-4.798,3.89-8.688,8.688-8.688h52.797c4.798,0,8.688,3.89,8.688,8.688v13.901C135.552,187.504,131.662,191.394,126.864,191.394z
			"/>
		<g id="XMLID_1452_">
			<path id="XMLID_1453_" style="fill:#93C0D1;" d="M75.424,142.608c-4.267,0-7.771-3.459-7.771-7.726s3.414-7.726,7.681-7.726h0.09
				c4.267,0,7.726,3.459,7.726,7.726S79.691,142.608,75.424,142.608z"/>
		</g>
		<g id="XMLID_1454_">
			<path id="XMLID_1455_" style="fill:#93C0D1;" d="M94.957,142.608c-4.267,0-7.772-3.459-7.772-7.726s3.414-7.726,7.682-7.726h0.09
				c4.267,0,7.726,3.459,7.726,7.726S99.224,142.608,94.957,142.608z"/>
		</g>
	</g>
</g>
<g>
</g>
<g>
</g>
<g>
</g>
<g>
</g>
<g>
</g>
<g>
</g>
<g>
</g>
<g>
</g>
<g>
</g>
<g>
</g>
<g>
</g>
<g>
</g>
<g>
</g>
<g>
</g>
<g>
</g>
</svg>
