<?xml version="1.0" encoding="iso-8859-1"?>
<!-- Generator: Adobe Illustrator 19.0.0, SVG Export Plug-In . SVG Version: 6.00 Build 0)  -->
<svg version="1.1" id="Layer_1" xmlns="http://www.w3.org/2000/svg" xmlns:xlink="http://www.w3.org/1999/xlink" x="0px" y="0px"
	 viewBox="0 0 512 512" style="enable-background:new 0 0 512 512;" xml:space="preserve">
<g id="XMLID_167_">
	<g id="XMLID_169_">
		<g id="XMLID_170_">
			<path id="XMLID_171_" style="fill:#FD6096;" d="M506.338,23.302v465.395c0,12.863-10.428,23.302-23.302,23.302H161.298
				c-12.875,0-23.302-10.439-23.302-23.302V23.302C137.996,10.439,148.424,0,161.298,0h321.737
				C495.91,0,506.338,10.439,506.338,23.302z"/>
			<path id="XMLID_172_" style="fill:#FC3E81;" d="M506.336,23.303v465.394c0,12.867-10.425,23.303-23.303,23.303h-38.694
				c12.877,0,23.303-10.436,23.303-23.303V23.303C467.642,10.436,457.217,0,444.339,0h38.694
				C495.91,0,506.336,10.436,506.336,23.303z"/>
			<path id="XMLID_176_" style="fill:#E3F4FF;" d="M506.336,23.303v38.024H137.998V23.303C137.998,10.436,148.423,0,161.3,0h321.733
				C495.91,0,506.336,10.436,506.336,23.303z"/>
			<path id="XMLID_179_" style="fill:#BDDFF4;" d="M506.336,23.303v38.024h-38.694V23.303C467.642,10.436,457.217,0,444.339,0
				h38.694C495.91,0,506.336,10.436,506.336,23.303z"/>
			<path id="XMLID_182_" style="fill:#E3F4FF;" d="M506.336,451.394v37.303c0,12.867-10.425,23.303-23.303,23.303H161.3
				c-12.877,0-23.303-10.436-23.303-23.303v-37.303H506.336z"/>
			<path id="XMLID_185_" style="fill:#BDDFF4;" d="M467.642,451.394h38.694v37.303c0,12.867-10.425,23.303-23.303,23.303h-38.694
				c12.877,0,23.303-10.436,23.303-23.303V451.394z"/>
			<g id="XMLID_186_">
				<path id="XMLID_187_" style="fill:#93C0D1;" d="M339.843,38.389h-39.147c-4.267,0-7.726-3.459-7.726-7.726
					s3.459-7.726,7.726-7.726h39.147c4.267,0,7.726,3.459,7.726,7.726S344.11,38.389,339.843,38.389z"/>
			</g>
			<g id="XMLID_188_">
				<path id="XMLID_189_" style="fill:#93C0D1;" d="M377.959,38.389h-5.151c-4.267,0-7.726-3.459-7.726-7.726
					s3.459-7.726,7.726-7.726h5.151c4.267,0,7.726,3.459,7.726,7.726S382.226,38.389,377.959,38.389z"/>
			</g>
		</g>
		<g id="XMLID_190_">
			<path id="XMLID_195_" style="fill:#43A3F9;" d="M246.014,127.951v365.737c0,10.109-8.195,18.312-18.312,18.312H23.975
				c-10.118,0-18.312-8.204-18.312-18.312V127.951c0-10.109,8.195-18.312,18.312-18.312h203.726
				C237.819,109.638,246.014,117.842,246.014,127.951z"/>
			<path id="XMLID_198_" style="fill:#1685FB;" d="M246.012,127.951v365.736c0,10.112-8.193,18.313-18.313,18.313h-30.408
				c10.12,0,18.313-8.201,18.313-18.313V127.951c0-10.112-8.193-18.313-18.313-18.313H227.7
				C237.819,109.638,246.012,117.839,246.012,127.951z"/>
			<path id="XMLID_201_" style="fill:#E3F4FF;" d="M246.012,127.951v29.882H5.664v-29.882c0-10.112,8.193-18.313,18.313-18.313
				H227.7C237.819,109.638,246.012,117.839,246.012,127.951z"/>
			<path id="XMLID_205_" style="fill:#BDDFF4;" d="M246.012,127.951v29.882h-30.408v-29.882c0-10.112-8.193-18.313-18.313-18.313
				H227.7C237.819,109.638,246.012,117.839,246.012,127.951z"/>
			<path id="XMLID_209_" style="fill:#E3F4FF;" d="M246.012,464.372v29.315c0,10.112-8.193,18.313-18.313,18.313H23.977
				c-10.12,0-18.313-8.201-18.313-18.313v-29.315H246.012z"/>
			<path id="XMLID_213_" style="fill:#BDDFF4;" d="M215.604,464.372h30.408v29.315c0,10.112-8.193,18.313-18.313,18.313h-30.408
				c10.12,0,18.313-8.201,18.313-18.313V464.372z"/>
			<g id="XMLID_214_">
				<path id="XMLID_215_" style="fill:#93C0D1;" d="M126.243,141.462H95.479c-4.267,0-7.726-3.459-7.726-7.726
					s3.459-7.726,7.726-7.726h30.764c4.267,0,7.726,3.459,7.726,7.726S130.51,141.462,126.243,141.462z"/>
			</g>
			<g id="XMLID_216_">
				<path id="XMLID_217_" style="fill:#93C0D1;" d="M156.197,141.462h-4.048c-4.267,0-7.726-3.459-7.726-7.726
					s3.459-7.726,7.726-7.726h4.048c4.267,0,7.726,3.459,7.726,7.726S160.464,141.462,156.197,141.462z"/>
			</g>
		</g>
	</g>
	<g id="XMLID_218_">
		<path id="XMLID_221_" style="fill:#E3F4FF;" d="M201.266,191.958h-30.163c-4.267,0-7.726,3.459-7.726,7.726
			c0,4.268,3.459,7.726,7.726,7.726h11.51l-27.673,27.673c-3.018,3.018-3.018,7.909,0,10.928c1.509,1.508,3.486,2.263,5.463,2.263
			c1.977,0,3.955-0.755,5.463-2.263l27.674-27.674v11.51c0,4.268,3.459,7.726,7.726,7.726s7.726-3.459,7.726-7.726v-30.163
			C208.992,195.417,205.533,191.958,201.266,191.958z"/>
		<path id="XMLID_224_" style="fill:#1685FB;" d="M201.266,263.726h-22.492c-4.267,0-7.726,3.459-7.726,7.726
			s3.459,7.726,7.726,7.726h22.492c4.267,0,7.726-3.459,7.726-7.726S205.533,263.726,201.266,263.726z"/>
		<path id="XMLID_227_" style="fill:#1685FB;" d="M201.266,284.33h-22.492c-4.267,0-7.726,3.459-7.726,7.726
			s3.459,7.726,7.726,7.726h22.492c4.267,0,7.726-3.459,7.726-7.726S205.533,284.33,201.266,284.33z"/>
		<path id="XMLID_230_" style="fill:#1685FB;" d="M201.266,304.934h-22.492c-4.267,0-7.726,3.459-7.726,7.726
			c0,4.268,3.459,7.726,7.726,7.726h22.492c4.267,0,7.726-3.459,7.726-7.726C208.992,308.392,205.533,304.934,201.266,304.934z"/>
	</g>
	<g id="XMLID_231_">
		<path id="XMLID_234_" style="fill:#E3F4FF;" d="M453.402,98.26h-30.163c-4.267,0-7.726,3.459-7.726,7.726s3.459,7.726,7.726,7.726
			h11.51l-42.84,42.84c-3.018,3.018-3.018,7.909,0,10.928c1.509,1.508,3.486,2.263,5.463,2.263c1.977,0,3.955-0.755,5.463-2.263
			l42.84-42.841v11.511c0,4.268,3.459,7.726,7.726,7.726c4.267,0,7.726-3.459,7.726-7.726v-30.164
			C461.128,101.718,457.669,98.26,453.402,98.26z"/>
		<path id="XMLID_235_" style="fill:#FC3E81;" d="M453.402,182.254H430.91c-4.267,0-7.726,3.459-7.726,7.726
			c0,4.268,3.459,7.726,7.726,7.726h22.492c4.267,0,7.726-3.459,7.726-7.726C461.128,185.712,457.669,182.254,453.402,182.254z"/>
		<path id="XMLID_236_" style="fill:#FC3E81;" d="M453.402,202.857H430.91c-4.267,0-7.726,3.459-7.726,7.726
			c0,4.268,3.459,7.726,7.726,7.726h22.492c4.267,0,7.726-3.459,7.726-7.726C461.128,206.316,457.669,202.857,453.402,202.857z"/>
		<path id="XMLID_237_" style="fill:#FC3E81;" d="M453.402,223.461H430.91c-4.267,0-7.726,3.459-7.726,7.726
			s3.459,7.726,7.726,7.726h22.492c4.267,0,7.726-3.459,7.726-7.726S457.669,223.461,453.402,223.461z"/>
	</g>
</g>
<g>
</g>
<g>
</g>
<g>
</g>
<g>
</g>
<g>
</g>
<g>
</g>
<g>
</g>
<g>
</g>
<g>
</g>
<g>
</g>
<g>
</g>
<g>
</g>
<g>
</g>
<g>
</g>
<g>
</g>
</svg>
