<?xml version="1.0" encoding="iso-8859-1"?>
<!-- Generator: Adobe Illustrator 19.0.0, SVG Export Plug-In . SVG Version: 6.00 Build 0)  -->
<svg version="1.1" id="Layer_1" xmlns="http://www.w3.org/2000/svg" xmlns:xlink="http://www.w3.org/1999/xlink" x="0px" y="0px"
	 viewBox="0 0 512 512" style="enable-background:new 0 0 512 512;" xml:space="preserve">
<g id="XMLID_1513_">
	<g id="XMLID_1514_">
		<g id="XMLID_1515_">
			<path id="XMLID_1518_" style="fill:#E3F4FF;" d="M512,43.242v425.516c0,5.687-4.615,10.302-10.302,10.302H10.302
				C4.615,479.06,0,474.445,0,468.758V43.242C0,37.555,4.615,32.94,10.302,32.94h491.396C507.385,32.94,512,37.555,512,43.242z"/>
			<path id="XMLID_1521_" style="fill:#BDDFF4;" d="M512,43.242v425.516c0,5.687-4.615,10.302-10.302,10.302h-30.565
				c5.687,0,10.302-4.615,10.302-10.302V43.242c0-5.687-4.615-10.302-10.302-10.302h30.565C507.385,32.94,512,37.555,512,43.242z"/>
			<g id="XMLID_1522_">
				<path id="XMLID_1525_" style="fill:#618BAA;" d="M512,43.242v55.187H0V43.242C0,37.555,4.615,32.94,10.302,32.94h491.396
					C507.385,32.94,512,37.555,512,43.242z"/>
			</g>
			<path id="XMLID_1528_" style="fill:#4E7693;" d="M512,43.242v55.187h-30.565V43.242c0-5.687-4.615-10.302-10.302-10.302h30.565
				C507.385,32.94,512,37.555,512,43.242z"/>
			<path id="XMLID_1529_" style="fill:#27E6FC;" d="M150.293,32.94v65.489H0V43.242C0,37.555,4.615,32.94,10.302,32.94H150.293z"/>
			<g id="XMLID_1530_">
				<g id="XMLID_1531_">
					<path id="XMLID_1532_" style="fill:#21C69C;" d="M47.878,73.33c-0.013,0-0.024,0-0.037,0l-0.109-0.001
						c-4.267-0.02-7.71-3.495-7.691-7.762c0.02-4.255,3.475-7.691,7.726-7.691c0.012,0,0.024,0,0.036,0l0.109,0.001
						c4.267,0.02,7.71,3.495,7.691,7.762C55.583,69.894,52.128,73.33,47.878,73.33z"/>
				</g>
				<g id="XMLID_1533_">
					<path id="XMLID_1534_" style="fill:#21C69C;" d="M76.22,73.412h-0.109c-4.267,0-7.726-3.459-7.726-7.726
						c0-4.267,3.459-7.726,7.726-7.726h0.109c4.267,0,7.726,3.459,7.726,7.726C83.946,69.953,80.487,73.412,76.22,73.412z"/>
				</g>
				<g id="XMLID_1535_">
					<path id="XMLID_1536_" style="fill:#21C69C;" d="M104.564,73.495c-0.013,0-0.025,0-0.037,0l-0.109-0.001
						c-4.267-0.02-7.71-3.495-7.691-7.762c0.02-4.255,3.475-7.691,7.725-7.691c0.013,0,0.025,0,0.037,0l0.109,0.001
						c4.267,0.02,7.71,3.495,7.691,7.762C112.27,70.059,108.814,73.495,104.564,73.495z"/>
				</g>
			</g>
		</g>
	</g>
	<g id="XMLID_1537_">
		<g id="XMLID_1538_">
			<g id="XMLID_1539_">
				<path id="XMLID_1540_" style="fill:#FD6096;" d="M349.403,445.686c-1.977,0-3.955-0.754-5.463-2.263
					c-3.017-3.017-3.018-7.909,0-10.927l8.396-8.397c3.017-3.017,7.909-3.018,10.927,0c3.017,3.017,3.018,7.909,0,10.927
					l-8.396,8.397C353.358,444.931,351.38,445.686,349.403,445.686z"/>
			</g>
			<g id="XMLID_1544_">
				<g id="XMLID_1542_">
					<path id="XMLID_1543_" style="fill:#4E7693;" d="M74.631,207.655H50.825c-4.267,0-7.726-3.459-7.726-7.726
						s3.459-7.726,7.726-7.726h23.806c4.267,0,7.726,3.459,7.726,7.726S78.898,207.655,74.631,207.655z"/>
				</g>
			</g>
			<g id="XMLID_1549_">
				<g id="XMLID_1547_">
					<path id="XMLID_1548_" style="fill:#4E7693;" d="M74.631,263.376H50.825c-4.267,0-7.726-3.459-7.726-7.726
						s3.459-7.726,7.726-7.726h23.806c4.267,0,7.726,3.459,7.726,7.726S78.898,263.376,74.631,263.376z"/>
				</g>
			</g>
			<g id="XMLID_1554_">
				<g id="XMLID_1552_">
					<path id="XMLID_1553_" style="fill:#4E7693;" d="M74.631,319.097H50.825c-4.267,0-7.726-3.459-7.726-7.726
						c0-4.267,3.459-7.726,7.726-7.726h23.806c4.267,0,7.726,3.459,7.726,7.726C82.358,315.637,78.898,319.097,74.631,319.097z"/>
				</g>
			</g>
			<g id="XMLID_1559_">
				<g id="XMLID_1557_">
					<path id="XMLID_1558_" style="fill:#4E7693;" d="M74.631,374.817H50.825c-4.267,0-7.726-3.459-7.726-7.726
						s3.459-7.726,7.726-7.726h23.806c4.267,0,7.726,3.459,7.726,7.726S78.898,374.817,74.631,374.817z"/>
				</g>
			</g>
			<g id="XMLID_1561_">
				<path id="XMLID_1562_" style="fill:#618BAA;" d="M461.221,414.877H76.692c-4.267,0-7.726-3.459-7.726-7.726V145.738
					c0-4.267,3.459-7.726,7.726-7.726s7.726,3.459,7.726,7.726v253.686h376.803c4.267,0,7.726,3.459,7.726,7.726
					C468.948,411.418,465.488,414.877,461.221,414.877z"/>
			</g>
			<g id="XMLID_1563_">
				<path id="XMLID_1566_" style="fill:#43A3F9;" d="M104.79,370.98c-1.423,0-2.862-0.392-4.15-1.215
					c-3.597-2.296-4.65-7.073-2.354-10.67l18.635-29.188c2.008-3.146,5.979-4.407,9.434-2.994l29.187,11.923l47.708-92.134
					c1.255-2.423,3.695-4.005,6.419-4.161c2.732-0.158,5.329,1.136,6.853,3.4l23.85,35.439l16.859-20.348
					c1.462-1.765,3.632-2.789,5.924-2.797c2.285-0.021,4.468,1.002,5.942,2.757l45.073,53.658l15.697-88.949
					c0.651-3.692,3.86-6.384,7.609-6.384h87.734c4.267,0,7.726,3.459,7.726,7.726s-3.459,7.726-7.726,7.726h-81.252l-17.448,98.868
					c-0.522,2.956-2.708,5.343-5.608,6.12c-2.898,0.775-5.987-0.195-7.917-2.493l-49.765-59.243l-17.541,21.172
					c-1.554,1.875-3.89,2.91-6.334,2.787c-2.433-0.121-4.665-1.382-6.026-3.403l-22.341-33.196l-44.961,86.829
					c-1.839,3.55-6.08,5.111-9.783,3.6l-29.758-12.156l-15.168,23.756C109.836,369.719,107.34,370.98,104.79,370.98z"/>
			</g>
			<g id="XMLID_1567_">
				<path id="XMLID_1568_" style="fill:#FD6096;" d="M96.871,445.686c-1.977,0-3.955-0.754-5.463-2.263
					c-3.017-3.017-3.018-7.909,0-10.927l8.396-8.397c3.017-3.017,7.909-3.018,10.927,0c3.017,3.017,3.018,7.909,0,10.927
					l-8.396,8.397C100.825,444.931,98.848,445.686,96.871,445.686z"/>
			</g>
			<g id="XMLID_1569_">
				<path id="XMLID_1570_" style="fill:#FD6096;" d="M132.947,445.686c-1.977,0-3.955-0.754-5.463-2.263
					c-3.017-3.017-3.018-7.909,0-10.927l8.396-8.397c3.017-3.017,7.909-3.018,10.927,0c3.017,3.017,3.018,7.909,0,10.927
					l-8.396,8.397C136.901,444.931,134.924,445.686,132.947,445.686z"/>
			</g>
			<g id="XMLID_1571_">
				<path id="XMLID_1572_" style="fill:#FD6096;" d="M169.023,445.686c-1.977,0-3.955-0.754-5.463-2.263
					c-3.017-3.017-3.018-7.909,0-10.927l8.396-8.397c3.017-3.017,7.909-3.018,10.927,0c3.017,3.017,3.018,7.909,0,10.927
					l-8.396,8.397C172.977,444.931,171,445.686,169.023,445.686z"/>
			</g>
			<g id="XMLID_1573_">
				<path id="XMLID_1574_" style="fill:#FD6096;" d="M205.099,445.686c-1.977,0-3.955-0.754-5.463-2.263
					c-3.017-3.017-3.018-7.909,0-10.927l8.396-8.397c3.017-3.017,7.909-3.018,10.927,0c3.017,3.017,3.018,7.909,0,10.927
					l-8.396,8.397C209.053,444.931,207.076,445.686,205.099,445.686z"/>
			</g>
			<g id="XMLID_1575_">
				<path id="XMLID_1576_" style="fill:#FD6096;" d="M241.175,445.686c-1.977,0-3.955-0.755-5.463-2.263
					c-3.018-3.017-3.018-7.909,0-10.927l8.397-8.397c3.017-3.017,7.909-3.017,10.927,0c3.018,3.017,3.018,7.909,0,10.927
					l-8.397,8.397C245.129,444.931,243.152,445.686,241.175,445.686z"/>
			</g>
			<g id="XMLID_1577_">
				<path id="XMLID_1578_" style="fill:#FD6096;" d="M277.251,445.686c-1.977,0-3.955-0.754-5.463-2.263
					c-3.017-3.017-3.018-7.909,0-10.927l8.396-8.397c3.017-3.017,7.909-3.018,10.927,0c3.017,3.017,3.018,7.909,0,10.927
					l-8.396,8.397C281.206,444.931,279.228,445.686,277.251,445.686z"/>
			</g>
			<g id="XMLID_1579_">
				<path id="XMLID_1580_" style="fill:#FD6096;" d="M313.327,445.686c-1.977,0-3.955-0.754-5.463-2.263
					c-3.017-3.017-3.018-7.909,0-10.927l8.396-8.397c3.017-3.017,7.909-3.018,10.927,0c3.017,3.017,3.018,7.909,0,10.927
					l-8.396,8.397C317.282,444.931,315.304,445.686,313.327,445.686z"/>
			</g>
			<g id="XMLID_1581_">
				<path id="XMLID_1582_" style="fill:#FD6096;" d="M421.108,445.686c-1.977,0-3.955-0.754-5.463-2.263
					c-3.017-3.017-3.018-7.909,0-10.927l8.396-8.397c3.017-3.017,7.909-3.018,10.927,0c3.017,3.017,3.018,7.909,0,10.927
					l-8.396,8.397C425.062,444.931,423.085,445.686,421.108,445.686z"/>
			</g>
			<g id="XMLID_1583_">
				<path id="XMLID_1584_" style="fill:#FD6096;" d="M385.032,445.686c-1.977,0-3.955-0.754-5.463-2.263
					c-3.017-3.017-3.018-7.909,0-10.927l8.396-8.397c3.017-3.017,7.909-3.018,10.927,0c3.017,3.017,3.018,7.909,0,10.927
					l-8.396,8.397C388.986,444.931,387.009,445.686,385.032,445.686z"/>
			</g>
			<g id="XMLID_1589_">
				<g id="XMLID_1586_">
					<g id="XMLID_1587_">
						<path id="XMLID_1588_" style="fill:#43A3F9;" d="M50.872,188.495c-4.267,0-7.773-3.459-7.773-7.726s3.412-7.726,7.68-7.726
							h0.094c4.267,0,7.726,3.459,7.726,7.726S55.139,188.495,50.872,188.495z"/>
					</g>
				</g>
			</g>
			<g id="XMLID_1596_">
				<g id="XMLID_1593_">
					<g id="XMLID_1594_">
						<path id="XMLID_1595_" style="fill:#43A3F9;" d="M50.873,244.216c-0.015,0-0.028,0-0.043,0
							c-4.267-0.023-7.754-3.501-7.731-7.768c0.023-4.253,3.432-7.685,7.679-7.685c0.015,0,0.028,0,0.043,0l0.094,0.001
							c4.267,0.023,7.707,3.501,7.685,7.768C58.575,240.784,55.121,244.216,50.873,244.216z"/>
					</g>
				</g>
			</g>
			<g id="XMLID_1603_">
				<g id="XMLID_1600_">
					<g id="XMLID_1601_">
						<path id="XMLID_1602_" style="fill:#43A3F9;" d="M50.872,299.936c-4.267,0-7.773-3.459-7.773-7.726
							c0-4.267,3.412-7.726,7.68-7.726h0.094c4.267,0,7.726,3.459,7.726,7.726C58.599,296.477,55.139,299.936,50.872,299.936z"/>
					</g>
				</g>
			</g>
			<g id="XMLID_1610_">
				<g id="XMLID_1607_">
					<g id="XMLID_1608_">
						<path id="XMLID_1609_" style="fill:#43A3F9;" d="M50.873,355.657c-0.015,0-0.028,0-0.043,0
							c-4.267-0.023-7.754-3.501-7.731-7.768c0.023-4.268,3.467-7.683,7.721-7.685l0.094,0c4.267,0.023,7.707,3.501,7.685,7.768
							C58.575,352.225,55.121,355.657,50.873,355.657z"/>
					</g>
				</g>
			</g>
		</g>
		<g id="XMLID_1613_">
			<path id="XMLID_2690_" style="fill:#BDDFF4;" d="M450.919,366.474h-69.426c-5.69,0-10.302-4.612-10.302-10.302v-69.426
				c0-5.69,4.612-10.302,10.302-10.302h69.426c5.69,0,10.302,4.612,10.302,10.302v69.426
				C461.221,361.862,456.609,366.474,450.919,366.474z"/>
			<path id="XMLID_2689_" style="fill:#FD9E28;" d="M461.221,303.383h-90.029v-16.637c0-5.69,4.612-10.302,10.302-10.302h69.426
				c5.69,0,10.302,4.612,10.302,10.302V303.383z"/>
		</g>
		<g id="XMLID_1614_">
			<path id="XMLID_900_" style="fill:#BDDFF4;" d="M184.083,224.052h-61.776c-5.063,0-9.167-4.104-9.167-9.167V153.11
				c0-5.063,4.104-9.167,9.167-9.167h61.776c5.063,0,9.167,4.104,9.167,9.167v61.776
				C193.25,219.948,189.146,224.052,184.083,224.052z"/>
			<path id="XMLID_899_" style="fill:#27E6FC;" d="M193.25,167.913h-80.109V153.11c0-5.063,4.104-9.167,9.167-9.167h61.776
				c5.063,0,9.167,4.104,9.167,9.167V167.913z"/>
		</g>
		<g id="XMLID_1616_">
			<path id="XMLID_1620_" style="fill:#93C0D1;" d="M245.373,165.106h-18.406c-4.267,0-7.726-3.459-7.726-7.726
				s3.459-7.726,7.726-7.726h18.406c4.267,0,7.726,3.459,7.726,7.726S249.64,165.106,245.373,165.106z"/>
		</g>
		<g id="XMLID_1621_">
			<path id="XMLID_1624_" style="fill:#93C0D1;" d="M281.449,190.555h-54.482c-4.267,0-7.726-3.459-7.726-7.726
				c0-4.267,3.459-7.726,7.726-7.726h54.482c4.267,0,7.726,3.459,7.726,7.726C289.176,187.096,285.716,190.555,281.449,190.555z"/>
		</g>
		<g id="XMLID_1625_">
			<path id="XMLID_1628_" style="fill:#93C0D1;" d="M281.449,209.716h-54.482c-4.267,0-7.726-3.459-7.726-7.726
				s3.459-7.726,7.726-7.726h54.482c4.267,0,7.726,3.459,7.726,7.726S285.716,209.716,281.449,209.716z"/>
		</g>
	</g>
</g>
<g>
</g>
<g>
</g>
<g>
</g>
<g>
</g>
<g>
</g>
<g>
</g>
<g>
</g>
<g>
</g>
<g>
</g>
<g>
</g>
<g>
</g>
<g>
</g>
<g>
</g>
<g>
</g>
<g>
</g>
</svg>
