<?xml version="1.0" encoding="iso-8859-1"?>
<!-- Generator: Adobe Illustrator 19.0.0, SVG Export Plug-In . SVG Version: 6.00 Build 0)  -->
<svg version="1.1" id="Layer_1" xmlns="http://www.w3.org/2000/svg" xmlns:xlink="http://www.w3.org/1999/xlink" x="0px" y="0px"
	 viewBox="0 0 512 512" style="enable-background:new 0 0 512 512;" xml:space="preserve">
<g id="XMLID_2201_">
	<g id="XMLID_2202_">
		<path id="XMLID_2773_" style="fill:#E3F4FF;" d="M512,43.242v425.516c0,5.687-4.615,10.302-10.302,10.302H10.302
			C4.615,479.06,0,474.445,0,468.758V43.242C0,37.555,4.615,32.94,10.302,32.94h491.396C507.385,32.94,512,37.555,512,43.242z"/>
		<path id="XMLID_2758_" style="fill:#BDDFF4;" d="M512,43.242v425.516c0,5.687-4.615,10.302-10.302,10.302h-30.565
			c5.687,0,10.302-4.615,10.302-10.302V43.242c0-5.687-4.615-10.302-10.302-10.302h30.565C507.385,32.94,512,37.555,512,43.242z"/>
		<g id="XMLID_2203_">
			<path id="XMLID_2755_" style="fill:#618BAA;" d="M512,43.242v55.187H0V43.242C0,37.555,4.615,32.94,10.302,32.94h491.396
				C507.385,32.94,512,37.555,512,43.242z"/>
		</g>
		<path id="XMLID_2751_" style="fill:#4E7693;" d="M512,43.242v55.187h-30.565V43.242c0-5.687-4.615-10.302-10.302-10.302h30.565
			C507.385,32.94,512,37.555,512,43.242z"/>
		<path id="XMLID_2750_" style="fill:#FD6096;" d="M150.293,32.94v65.489H0V43.242C0,37.555,4.615,32.94,10.302,32.94H150.293z"/>
		<g id="XMLID_2206_">
			<g id="XMLID_2209_">
				<path id="XMLID_2749_" style="fill:#FC3E81;" d="M47.878,73.33c-0.013,0-0.024,0-0.037,0l-0.109-0.001
					c-4.267-0.02-7.71-3.495-7.691-7.762c0.02-4.255,3.475-7.691,7.726-7.691c0.012,0,0.024,0,0.036,0l0.109,0.001
					c4.267,0.02,7.71,3.495,7.691,7.762C55.583,69.894,52.128,73.33,47.878,73.33z"/>
			</g>
			<g id="XMLID_2210_">
				<path id="XMLID_2746_" style="fill:#FC3E81;" d="M76.221,73.413c-0.013,0-0.025,0-0.037,0l-0.109-0.001
					c-4.267-0.02-7.71-3.495-7.691-7.762c0.02-4.255,3.475-7.691,7.725-7.691c0.013,0,0.025,0,0.037,0l0.109,0.001
					c4.267,0.02,7.71,3.495,7.691,7.762C83.927,69.977,80.471,73.413,76.221,73.413z"/>
			</g>
			<g id="XMLID_2211_">
				<path id="XMLID_2744_" style="fill:#FC3E81;" d="M104.563,73.495h-0.109c-4.267,0-7.726-3.459-7.726-7.726
					s3.459-7.726,7.726-7.726h0.109c4.267,0,7.726,3.459,7.726,7.726S108.83,73.495,104.563,73.495z"/>
			</g>
		</g>
	</g>
	<g id="XMLID_2212_">
		<path id="XMLID_2740_" style="fill:#FD6096;" d="M80.042,276.895h351.917c5.69,0,10.302,4.612,10.302,10.302v33.72
			c0,5.69-4.612,10.302-10.302,10.302H80.042c-5.69,0-10.302-4.612-10.302-10.302v-33.72
			C69.74,281.507,74.352,276.895,80.042,276.895z"/>
		<g id="XMLID_2213_">
			<g id="XMLID_2214_">
				<g id="XMLID_2217_">
					<g id="XMLID_2216_">
						<path id="XMLID_2738_" style="fill:#93C0D1;" d="M182.409,250.587c-0.844,0-1.702-0.139-2.544-0.433
							c-4.029-1.405-6.156-5.811-4.751-9.84l17.461-50.062c1.405-4.029,5.81-6.156,9.84-4.751c4.029,1.405,6.156,5.811,4.751,9.84
							l-17.461,50.062C188.593,248.59,185.604,250.587,182.409,250.587z"/>
					</g>
				</g>
				<g id="XMLID_2218_">
					<path id="XMLID_2732_" style="fill:#93C0D1;" d="M162.65,250.587c-0.844,0-1.702-0.139-2.544-0.433
						c-4.029-1.405-6.156-5.811-4.751-9.84l17.461-50.062c1.405-4.029,5.81-6.156,9.84-4.751c4.029,1.405,6.156,5.811,4.751,9.84
						l-17.461,50.062C168.834,248.59,165.845,250.587,162.65,250.587z"/>
				</g>
				<g id="XMLID_2219_">
					<path id="XMLID_2728_" style="fill:#93C0D1;" d="M149.557,232.809c-3.195,0-6.184-1.997-7.295-5.184l-11.26-32.283
						c-1.405-4.029,0.722-8.435,4.751-9.84c4.03-1.406,8.434,0.722,9.84,4.751l11.26,32.283c1.405,4.029-0.722,8.435-4.751,9.84
						C151.259,232.669,150.401,232.809,149.557,232.809z"/>
				</g>
			</g>
			<g id="XMLID_2221_">
				<g id="XMLID_2225_">
					<g id="XMLID_2224_">
						<path id="XMLID_2724_" style="fill:#93C0D1;" d="M269.325,250.587c-0.844,0-1.702-0.139-2.544-0.433
							c-4.029-1.405-6.156-5.811-4.751-9.84l17.461-50.062c1.405-4.029,5.81-6.156,9.84-4.751c4.029,1.405,6.156,5.811,4.751,9.84
							l-17.461,50.062C275.509,248.59,272.52,250.587,269.325,250.587z"/>
					</g>
				</g>
				<g id="XMLID_2228_">
					<g id="XMLID_2227_">
						<path id="XMLID_2719_" style="fill:#93C0D1;" d="M249.567,250.587c-0.844,0-1.702-0.139-2.544-0.433
							c-4.029-1.405-6.156-5.811-4.751-9.84l17.461-50.062c1.405-4.029,5.811-6.156,9.84-4.751c4.029,1.405,6.156,5.811,4.751,9.84
							l-17.461,50.062C255.751,248.59,252.762,250.587,249.567,250.587z"/>
					</g>
				</g>
				<g id="XMLID_2229_">
					<path id="XMLID_2713_" style="fill:#93C0D1;" d="M236.473,232.809c-3.195,0-6.184-1.997-7.295-5.184l-11.26-32.283
						c-1.405-4.029,0.722-8.435,4.751-9.84c4.029-1.406,8.434,0.722,9.84,4.751l11.26,32.283c1.405,4.029-0.722,8.435-4.751,9.84
						C238.176,232.669,237.317,232.809,236.473,232.809z"/>
				</g>
			</g>
			<g id="XMLID_2236_">
				<g id="XMLID_2232_">
					<g id="XMLID_2233_">
						<path id="XMLID_2700_" style="fill:#93C0D1;" d="M356.242,250.587c-0.844,0-1.702-0.139-2.544-0.433
							c-4.029-1.405-6.156-5.81-4.751-9.84l17.46-50.062c1.405-4.029,5.811-6.156,9.84-4.751c4.029,1.405,6.156,5.81,4.751,9.84
							l-17.46,50.062C362.427,248.59,359.437,250.587,356.242,250.587z"/>
					</g>
					<g id="XMLID_2234_">
						<path id="XMLID_2698_" style="fill:#93C0D1;" d="M336.484,250.587c-0.844,0-1.702-0.139-2.544-0.433
							c-4.029-1.405-6.156-5.81-4.751-9.84l17.46-50.062c1.404-4.029,5.811-6.156,9.84-4.751c4.029,1.405,6.156,5.81,4.751,9.84
							l-17.46,50.062C342.668,248.59,339.679,250.587,336.484,250.587z"/>
					</g>
					<g id="XMLID_2235_">
						<path id="XMLID_2695_" style="fill:#93C0D1;" d="M323.39,232.809c-3.195,0-6.184-1.997-7.295-5.184l-11.26-32.283
							c-1.405-4.029,0.722-8.435,4.751-9.84c4.031-1.406,8.434,0.722,9.84,4.751l11.26,32.283c1.405,4.029-0.722,8.435-4.751,9.84
							C325.092,232.669,324.234,232.809,323.39,232.809z"/>
					</g>
				</g>
			</g>
		</g>
		<g id="XMLID_2242_">
			<g id="XMLID_2241_">
				<path id="XMLID_904_" style="fill:#93C0D1;" d="M115.895,367.77H77.964c-4.267,0-7.726-3.459-7.726-7.726
					c0-4.267,3.459-7.726,7.726-7.726h37.931c4.267,0,7.726,3.459,7.726,7.726C123.622,364.31,120.162,367.77,115.895,367.77z"/>
			</g>
		</g>
		<g id="XMLID_2243_">
			<path id="XMLID_896_" style="fill:#93C0D1;" d="M115.895,388.373H77.964c-4.267,0-7.726-3.459-7.726-7.726
				c0-4.267,3.459-7.726,7.726-7.726h37.931c4.267,0,7.726,3.459,7.726,7.726C123.622,384.914,120.162,388.373,115.895,388.373z"/>
		</g>
		<g id="XMLID_2247_">
			<g id="XMLID_2246_">
				<path id="XMLID_399_" style="fill:#93C0D1;" d="M442.26,364.679h-40.539c-4.267,0-7.726-3.459-7.726-7.726
					c0-4.267,3.459-7.726,7.726-7.726h40.539c4.267,0,7.726,3.459,7.726,7.726C449.986,361.22,446.527,364.679,442.26,364.679z"/>
			</g>
		</g>
		<g id="XMLID_2250_">
			<g id="XMLID_2249_">
				<path id="XMLID_384_" style="fill:#93C0D1;" d="M442.26,388.373h-19.954c-4.267,0-7.726-3.459-7.726-7.726
					c0-4.267,3.459-7.726,7.726-7.726h19.954c4.267,0,7.726,3.459,7.726,7.726C449.986,384.914,446.527,388.373,442.26,388.373z"/>
			</g>
		</g>
	</g>
</g>
<g>
</g>
<g>
</g>
<g>
</g>
<g>
</g>
<g>
</g>
<g>
</g>
<g>
</g>
<g>
</g>
<g>
</g>
<g>
</g>
<g>
</g>
<g>
</g>
<g>
</g>
<g>
</g>
<g>
</g>
</svg>
