<svg xmlns="http://www.w3.org/2000/svg" xmlns:xlink="http://www.w3.org/1999/xlink" width="4619" height="410" viewBox="0 0 4619 410">
  <defs>
    <style>
      .cls-1 {
        filter: url(#filter);
      }

      .cls-2 {
        fill-rule: evenodd;
      }
    </style>
    <filter id="filter" filterUnits="userSpaceOnUse">
      <feFlood result="flood" flood-color="#335eea"/>
      <feComposite result="composite" operator="in" in2="SourceGraphic"/>
      <feBlend result="blend" in2="SourceGraphic"/>
    </filter>
  </defs>
  <g class="cls-1">
    <path id="MAXVOGEL" class="cls-2" d="M55.575,13.9H-5.666V394.3H34.419V63.872h1.114L178.058,394.3h21.156L341.74,63.872h1.114V394.3h40.085V13.9H321.7L189.75,328.755h-0.557ZM527.684,294.368H731.451L774.877,394.3h44.54L650.167,13.9H611.2L440.833,394.3h43.982ZM629.568,56.887l86.852,202.02h-173.7ZM898.472,13.9H848.365L980.313,194.433,835.56,394.3h50.107l119.7-171.395,120.25,171.4h50.11L1030.98,194.97,1161.81,13.9h-47.88L1006.48,167.568Zm332.928,0h-43.43l150.32,380.4h42.31L1531.48,13.9h-42.87L1360.56,344.336h-1.11Zm721.53,110.144a190.834,190.834,0,0,0-43.15-63.131q-27.555-26.6-65.14-41.64T1763.08,4.233q-43.98,0-81.56,15.044t-65.14,41.64a190.685,190.685,0,0,0-43.15,63.131q-15.585,36.545-15.59,80.056t15.59,80.056a190.6,190.6,0,0,0,43.15,63.131,199.179,199.179,0,0,0,65.14,41.64q37.575,15.036,81.56,15.044t81.56-15.044a199.179,199.179,0,0,0,65.14-41.64,190.749,190.749,0,0,0,43.15-63.131q15.585-36.531,15.59-80.056T1952.93,124.048Zm-37.86,143.624a154.282,154.282,0,0,1-32.29,52.57q-21.165,22.529-51.5,35.94t-68.2,13.407q-37.86,0-68.2-13.407-30.36-13.412-51.5-35.94a153.973,153.973,0,0,1-32.29-52.57,185.41,185.41,0,0,1,0-126.6,156.889,156.889,0,0,1,32.29-52.83,154.346,154.346,0,0,1,51.5-36.208q30.33-13.411,68.2-13.415t68.2,13.415a154.548,154.548,0,0,1,51.5,36.208,157.209,157.209,0,0,1,32.29,52.83A185.566,185.566,0,0,1,1915.07,267.672ZM2378.83,55.813q-25.05-24.279-60.13-37.929t-82.4-13.65q-43.98,0-81.56,15.044a199.53,199.53,0,0,0-65.14,41.64,190.51,190.51,0,0,0-43.14,63.131q-15.6,36.545-15.59,80.056t15.31,80.056a189.009,189.009,0,0,0,42.59,63.131q27.27,26.6,65.14,41.64,37.845,15.036,82.39,15.044a323.526,323.526,0,0,0,77.39-9.159,260.426,260.426,0,0,0,69.59-28.006V194.97H2251.34v34.387h91.86V344.873q-17.265,10.755-45.1,17.731t-61.24,6.985q-37.86,0-68.2-13.407t-51.5-35.94a157.643,157.643,0,0,1-32.57-52.57,181.289,181.289,0,0,1,0-126.6,160.677,160.677,0,0,1,32.57-52.83,154.447,154.447,0,0,1,51.5-36.208q30.345-13.411,68.2-13.415,36.75,0,65.14,11.552a143.863,143.863,0,0,1,48.99,32.506Zm146.98,157.425h190.96V178.851H2525.81V48.291h204.32V13.9H2485.72V394.3h251.09V359.917h-211V213.238ZM2855.39,13.9h-40.08V394.3h223.81V359.917H2855.39V13.9Z"/>
    <path id="MOUNTAIN" class="cls-2" d="M3468,395l162.59-87,80.21,54.058,56.36-44.767,39.02,35.476,22.77-11.825,28.18,11.825,27.1-18.583L3933,367.126l45.53-20.272,30.35,10.136,23.85-6.757,24.93-1.689,40.1-23.651L4230,394.155"/>
    <path id="group" class="cls-2" d="M3099.01,343.009q23.535,23.744,56.62,37.24a182.293,182.293,0,0,0,69.5,13.492q43.725,0,71.19-12.953t43.45-32.382a108.7,108.7,0,0,0,21.86-42.637,178.363,178.363,0,0,0,5.88-43.716V11.629H3329.4V55.345h-1.12q-15.705-24.287-43.17-37.24a130.111,130.111,0,0,0-56.05-12.953q-30.84,0-55.78,10.254a125.586,125.586,0,0,0-70.07,69.622,131.583,131.583,0,0,0-9.81,50.732,132.946,132.946,0,0,0,9.81,51.272,118.7,118.7,0,0,0,27.47,40.748,127.046,127.046,0,0,0,42.6,26.716q24.945,9.714,55.78,9.715,28.59,0,56.33-12.953t42.89-36.7h1.12v47.494a129.886,129.886,0,0,1-5.61,38.589,84.174,84.174,0,0,1-17.66,31.573q-12.06,13.484-31.67,21.318-19.62,7.818-47.64,7.826a127.638,127.638,0,0,1-57.46-13.493q-27.2-13.5-42.88-32.922ZM3140.49,96.9a91.533,91.533,0,0,1,50.45-52.891q18.495-8.1,42.04-8.1a99.534,99.534,0,0,1,40.36,8.1A102.913,102.913,0,0,1,3305.29,65.6a98.306,98.306,0,0,1,21.02,31.3,95.538,95.538,0,0,1,7.57,37.78q0,22.137-7.57,40.208a91.465,91.465,0,0,1-21.02,31.033,92.949,92.949,0,0,1-31.95,19.969,112.8,112.8,0,0,1-40.36,7.017q-23.535,0-42.04-7.826a89.762,89.762,0,0,1-31.11-21.319,93.772,93.772,0,0,1-19.34-31.3A109.4,109.4,0,0,1,3140.49,96.9Zm326.24-29.684V264.212h38.11V134.994q0-25.3,6.45-43.345t16.82-29.608a62.487,62.487,0,0,1,24.38-16.959,80.527,80.527,0,0,1,29.15-5.389,115.683,115.683,0,0,1,15.7,1.079,75.741,75.741,0,0,1,11.21,2.159l5.04-35.081a74.623,74.623,0,0,0-12.05-2.159c-3.92-.354-8.32-0.54-13.17-0.54q-28.035,0-50.45,13.763t-33.64,35.891h-1.12q0-8.1-.56-20.509t-1.68-22.668h-36.44q1.125,12.953,1.69,29.144,0.54,16.191.56,26.446h0Zm441.99,17.81a127.1,127.1,0,0,0-28.87-42.1,131.561,131.561,0,0,0-44.28-27.795q-25.8-9.98-56.62-9.985-30.27,0-56.05,9.985a131.408,131.408,0,0,0-44.29,27.795,126.952,126.952,0,0,0-28.87,42.1q-10.38,24.287-10.37,52.891t10.37,52.891a126.951,126.951,0,0,0,28.87,42.1,131.292,131.292,0,0,0,44.29,27.8q25.77,9.98,56.05,9.984,30.825,0,56.62-9.984a131.444,131.444,0,0,0,44.28-27.8,127.1,127.1,0,0,0,28.87-42.1,133.32,133.32,0,0,0,10.37-52.891A133.35,133.35,0,0,0,3908.72,85.029Zm-37,92.56a96.4,96.4,0,0,1-19.9,32.382,90.913,90.913,0,0,1-31.39,21.588q-18.495,7.83-41.48,7.826t-41.2-7.826a91.391,91.391,0,0,1-31.11-21.588,96.4,96.4,0,0,1-19.9-32.382,111.5,111.5,0,0,1-7.01-39.669,111.5,111.5,0,0,1,7.01-39.668,96.4,96.4,0,0,1,19.9-32.382,94.731,94.731,0,0,1,31.11-21.858q18.21-8.1,41.2-8.1t41.48,8.1a94.17,94.17,0,0,1,31.39,21.858,96.4,96.4,0,0,1,19.9,32.382,111.724,111.724,0,0,1,7.01,39.668A111.726,111.726,0,0,1,3871.72,177.589Zm356.23,86.623q-1.125-12.954-1.68-29.145-0.57-16.191-.56-26.445V11.629h-38.12V141.158q0,25.376-6.73,43.987t-17.93,30.763a72.252,72.252,0,0,1-25.51,18.08,75.928,75.928,0,0,1-29.43,5.937q-20.745,0-34.47-6.477a54.263,54.263,0,0,1-21.86-18.08q-8.13-11.6-11.49-27.795a177.75,177.75,0,0,1-3.37-36.16V11.629h-38.12v154.9q0,46.954,24.95,75.559,24.93,28.613,74.83,28.6a109.644,109.644,0,0,0,53.26-13.762q25.215-13.762,36.43-35.891h1.12q0,8.1.56,20.509t1.68,22.668h36.44Zm136.77-42.637h1.68a105.528,105.528,0,0,0,43.45,36.43q27.18,12.675,55.21,12.683,30.825,0,55.78-10.254a127.357,127.357,0,0,0,42.6-28.065,126.381,126.381,0,0,0,27.47-42.1,138.641,138.641,0,0,0,9.81-52.352,138.674,138.674,0,0,0-9.81-52.351,126.374,126.374,0,0,0-27.47-42.1,127.47,127.47,0,0,0-42.6-28.065q-24.96-10.246-55.78-10.254-28.035,0-55.21,12.683a102.937,102.937,0,0,0-43.45,37.51h-1.68V11.629H4326.6V393.741h38.12V221.575Zm188.91-43.986a95.277,95.277,0,0,1-19.34,32.382,88.034,88.034,0,0,1-31.11,21.588q-18.495,7.83-42.04,7.826a102.452,102.452,0,0,1-40.36-7.826,98.871,98.871,0,0,1-31.95-21.318,96.047,96.047,0,0,1-21.02-32.113,105.663,105.663,0,0,1-7.57-40.208,105.7,105.7,0,0,1,7.57-40.208,99.132,99.132,0,0,1,21.02-32.382,96.936,96.936,0,0,1,31.95-21.588,102.6,102.6,0,0,1,40.36-7.826q23.535,0,42.04,8.1a91.121,91.121,0,0,1,31.11,21.858,95.276,95.276,0,0,1,19.34,32.382,115.968,115.968,0,0,1,6.73,39.668A115.969,115.969,0,0,1,4553.63,177.589Z"/>
  </g>
</svg>
